<?xml version="1.0" encoding="UTF-8"?>
<svg width="14px" height="14px" viewBox="0 0 14 14" version="1.1" xmlns="http://www.w3.org/2000/svg" xmlns:xlink="http://www.w3.org/1999/xlink">
    <title>554658CF-3418-43F2-8376-CBF087EB40BF@3x</title>
    <g id="Page-1" stroke="none" stroke-width="1" fill="none" fill-rule="evenodd">
        <g id="3_AI-Labs_BGM-Project-3" transform="translate(-150.000000, -357.000000)" fill="#48398A" fill-rule="nonzero">
            <g id="Group-7" transform="translate(140.000000, 352.000000)">
                <g id="Group-10" transform="translate(10.000000, 3.000000)">
                    <g id="Play-Button" transform="translate(0.000000, 2.000000)">
                        <path d="M7,0 C10.8600352,0 14,3.14026562 14,7 C14,10.8597344 10.8600352,14 7,14 C3.13996484,14 0,10.8597344 0,7 C0,3.14026562 3.13996484,0 7,0 Z M5.38526487,4.04782203 C5.30860096,3.98774789 5.20948397,3.98454168 5.13038256,4.03668469 C5.04980459,4.08941832 5,4.19021689 5,4.30007158 L5,4.30007158 L5,9.69999489 C5,9.80984958 5.04980459,9.91064814 5.13038256,9.96338177 C5.16748405,9.98768142 5.20899178,10 5.25000732,10 C5.29688223,10 5.34424933,9.98416585 5.38526487,9.95224443 L5.38526487,9.95224443 L8.88525022,7.25228277 C8.95654696,7.19718668 9,7.10198491 9,7.00003323 C9,6.89808155 8.95654696,6.80285166 8.88525022,6.74778369 L8.88525022,6.74778369 Z" id="Combined-Shape"></path>
                    </g>
                </g>
            </g>
        </g>
    </g>
</svg>