<?xml version="1.0" encoding="UTF-8"?>
<svg width="8px" height="13px" viewBox="0 0 8 13" version="1.1" xmlns="http://www.w3.org/2000/svg" xmlns:xlink="http://www.w3.org/1999/xlink">
    <title>9AA1FC10-0EB9-431B-B750-78364C3C6C09@3x</title>
    <g id="Page-1" stroke="none" stroke-width="1" fill="none" fill-rule="evenodd">
        <g id="3_AI-Labs_BGM-Project-3" transform="translate(-140.000000, -109.000000)" fill="#8273B0" fill-rule="nonzero">
            <g id="Group-9" transform="translate(140.000000, 105.000000)">
                <path d="M7.77050045,11.0466127 L0.770529745,16.8965296 C0.688498655,16.9656927 0.593764465,17 0.500014648,17 C0.417983559,17 0.334968096,16.9733098 0.260765116,16.9206605 C0.0996091805,16.8064043 0,16.5880074 0,16.3499889 L0,4.65015508 C0,4.41213659 0.0996091805,4.19373969 0.260765116,4.0794835 C0.418967932,3.96650698 0.61720192,3.97345376 0.770529745,4.10361441 L7.77050045,9.95353133 C7.91309392,10.0728453 8,10.2791767 8,10.500072 C8,10.7209673 7.91309392,10.9272378 7.77050045,11.0466127 Z" id="back-button" transform="translate(4.000000, 10.500000) scale(-1, 1) translate(-4.000000, -10.500000) "></path>
            </g>
        </g>
    </g>
</svg>