<?xml version="1.0" encoding="UTF-8"?>
<svg width="1398px" height="110px" viewBox="0 0 1398 110" version="1.1" xmlns="http://www.w3.org/2000/svg" xmlns:xlink="http://www.w3.org/1999/xlink">
    <title>D7D367B4-1028-4E27-8E0C-5DAAE603F70C@3x</title>
    <g id="Page-1" stroke="none" stroke-width="1" fill="none" fill-rule="evenodd" opacity="0.4">
        <g id="1_AI-Labs_BGM-Project-1" transform="translate(-1.000000, -99.000000)" stroke="#FFFFFF" stroke-width="2">
            <g id="Banner">
                <g id="Group-13">
                    <g id="Group-12" transform="translate(1.000000, 99.000000)">
                        <g id="Group-9" transform="translate(935.000000, 0.000000)">
                            <g id="Group-8" transform="translate(146.000000, 0.000000)">
                                <g id="Group-7" transform="translate(315.130593, 55.000000) scale(-1, 1) translate(-315.130593, -55.000000) translate(313.870477, 44.000000)">
                                    <line x1="1.26036763" y1="0" x2="1.26036763" y2="1" id="Stroke-1"></line>
                                    <line x1="1.26036763" y1="2.0527" x2="1.26036763" y2="20.4737" id="Stroke-3" stroke-dasharray="2.105,1.053"></line>
                                    <line x1="1.26036763" y1="21" x2="1.26036763" y2="22" id="Stroke-5"></line>
                                </g>
                                <line x1="308.342476" y1="59" x2="308.342476" y2="58" id="Stroke-8" transform="translate(308.342476, 58.500000) scale(-1, 1) translate(-308.342476, -58.500000) "></line>
                                <line x1="308.342476" y1="57.1426" x2="308.342476" y2="52.4286" id="Stroke-9" stroke-dasharray="1.714,0.857" transform="translate(308.342476, 54.785600) scale(-1, 1) translate(-308.342476, -54.785600) "></line>
                                <line x1="308.342476" y1="52" x2="308.342476" y2="51" id="Stroke-10" transform="translate(308.342476, 51.500000) scale(-1, 1) translate(-308.342476, -51.500000) "></line>
                                <line x1="301.553982" y1="58" x2="301.553982" y2="57" id="Stroke-11" transform="translate(301.553982, 57.500000) scale(-1, 1) translate(-301.553982, -57.500000) "></line>
                                <line x1="301.553982" y1="56" x2="301.553982" y2="53.5" id="Stroke-12" stroke-dasharray="2,1" transform="translate(301.553982, 54.750000) scale(-1, 1) translate(-301.553982, -54.750000) "></line>
                                <line x1="301.553982" y1="53" x2="301.553982" y2="52" id="Stroke-13" transform="translate(301.553982, 52.500000) scale(-1, 1) translate(-301.553982, -52.500000) "></line>
                                <line x1="240.78352" y1="58" x2="240.78352" y2="57" id="Stroke-14" transform="translate(240.783520, 57.500000) scale(-1, 1) translate(-240.783520, -57.500000) "></line>
                                <line x1="240.78352" y1="56" x2="240.78352" y2="53.5" id="Stroke-15" stroke-dasharray="2,1" transform="translate(240.783520, 54.750000) scale(-1, 1) translate(-240.783520, -54.750000) "></line>
                                <line x1="240.78352" y1="53" x2="240.78352" y2="52" id="Stroke-16" transform="translate(240.783520, 52.500000) scale(-1, 1) translate(-240.783520, -52.500000) "></line>
                                <line x1="294.765487" y1="57" x2="294.765487" y2="56" id="Stroke-17" transform="translate(294.765487, 56.500000) scale(-1, 1) translate(-294.765487, -56.500000) "></line>
                                <line x1="294.765487" y1="54" x2="294.765487" y2="53" id="Stroke-18" transform="translate(294.765487, 53.500000) scale(-1, 1) translate(-294.765487, -53.500000) "></line>
                                <line x1="287.976992" y1="66.4004" x2="287.976992" y2="65.4004" id="Stroke-19" transform="translate(287.976992, 65.900400) scale(-1, 1) translate(-287.976992, -65.900400) "></line>
                                <line x1="287.976992" y1="64.4541" x2="287.976992" y2="45.0721" id="Stroke-20" stroke-dasharray="1.891,0.945" transform="translate(287.976992, 54.763100) scale(-1, 1) translate(-287.976992, -54.763100) "></line>
                                <line x1="287.976992" y1="44.5996" x2="287.976992" y2="43.5996" id="Stroke-21" transform="translate(287.976992, 44.099600) scale(-1, 1) translate(-287.976992, -44.099600) "></line>
                                <line x1="281.188497" y1="78" x2="281.188497" y2="77" id="Stroke-22" transform="translate(281.188497, 77.500000) scale(-1, 1) translate(-281.188497, -77.500000) "></line>
                                <line x1="281.188497" y1="75.9766" x2="281.188497" y2="33.5116" id="Stroke-23" stroke-dasharray="2.047,1.023" transform="translate(281.188497, 54.744100) scale(-1, 1) translate(-281.188497, -54.744100) "></line>
                                <line x1="281.188497" y1="33" x2="281.188497" y2="32" id="Stroke-24" transform="translate(281.188497, 32.500000) scale(-1, 1) translate(-281.188497, -32.500000) "></line>
                                <line x1="274.400632" y1="105" x2="274.400632" y2="104" id="Stroke-25" transform="translate(274.400632, 104.500000) scale(-1, 1) translate(-274.400632, -104.500000) "></line>
                                <line x1="274.400632" y1="102.9893" x2="274.400632" y2="6.5053" id="Stroke-26" stroke-dasharray="2.021,1.01" transform="translate(274.400632, 54.747300) scale(-1, 1) translate(-274.400632, -54.747300) "></line>
                                <line x1="274.400632" y1="6" x2="274.400632" y2="5" id="Stroke-27" transform="translate(274.400632, 5.500000) scale(-1, 1) translate(-274.400632, -5.500000) "></line>
                                <line x1="267.612012" y1="74" x2="267.612012" y2="73" id="Stroke-28" transform="translate(267.612012, 73.500000) scale(-1, 1) translate(-267.612012, -73.500000) "></line>
                                <line x1="267.612012" y1="72.0273" x2="267.612012" y2="37.4863" id="Stroke-29" stroke-dasharray="1.946,0.973" transform="translate(267.612012, 54.756800) scale(-1, 1) translate(-267.612012, -54.756800) "></line>
                                <line x1="267.612012" y1="37" x2="267.612012" y2="36" id="Stroke-30" transform="translate(267.612012, 36.500000) scale(-1, 1) translate(-267.612012, -36.500000) "></line>
                                <line x1="260.823517" y1="65" x2="260.823517" y2="64" id="Stroke-31" transform="translate(260.823517, 64.500000) scale(-1, 1) translate(-260.823517, -64.500000) "></line>
                                <line x1="260.823517" y1="63.0527" x2="260.823517" y2="46.4737" id="Stroke-32" stroke-dasharray="1.895,0.947" transform="translate(260.823517, 54.763200) scale(-1, 1) translate(-260.823517, -54.763200) "></line>
                                <line x1="260.823517" y1="46" x2="260.823517" y2="45" id="Stroke-33" transform="translate(260.823517, 45.500000) scale(-1, 1) translate(-260.823517, -45.500000) "></line>
                                <line x1="254.035022" y1="74" x2="254.035022" y2="73" id="Stroke-34" transform="translate(254.035022, 73.500000) scale(-1, 1) translate(-254.035022, -73.500000) "></line>
                                <line x1="254.035022" y1="72.0273" x2="254.035022" y2="37.4863" id="Stroke-35" stroke-dasharray="1.946,0.973" transform="translate(254.035022, 54.756800) scale(-1, 1) translate(-254.035022, -54.756800) "></line>
                                <line x1="254.035022" y1="37" x2="254.035022" y2="36" id="Stroke-36" transform="translate(254.035022, 36.500000) scale(-1, 1) translate(-254.035022, -36.500000) "></line>
                                <line x1="247.247157" y1="61" x2="247.247157" y2="60" id="Stroke-37" transform="translate(247.247157, 60.500000) scale(-1, 1) translate(-247.247157, -60.500000) "></line>
                                <line x1="247.247157" y1="59" x2="247.247157" y2="50.5" id="Stroke-38" stroke-dasharray="2,1" transform="translate(247.247157, 54.750000) scale(-1, 1) translate(-247.247157, -54.750000) "></line>
                                <line x1="247.247157" y1="50" x2="247.247157" y2="49" id="Stroke-39" transform="translate(247.247157, 49.500000) scale(-1, 1) translate(-247.247157, -49.500000) "></line>
                                <line x1="233.670168" y1="61" x2="233.670168" y2="60" id="Stroke-40" transform="translate(233.670168, 60.500000) scale(-1, 1) translate(-233.670168, -60.500000) "></line>
                                <line x1="233.670168" y1="59" x2="233.670168" y2="50.5" id="Stroke-41" stroke-dasharray="2,1" transform="translate(233.670168, 54.750000) scale(-1, 1) translate(-233.670168, -54.750000) "></line>
                                <line x1="233.670168" y1="50" x2="233.670168" y2="49" id="Stroke-42" transform="translate(233.670168, 49.500000) scale(-1, 1) translate(-233.670168, -49.500000) "></line>
                                <line x1="226.881673" y1="73" x2="226.881673" y2="72" id="Stroke-43" transform="translate(226.881673, 72.500000) scale(-1, 1) translate(-226.881673, -72.500000) "></line>
                                <line x1="226.881673" y1="71" x2="226.881673" y2="38.5" id="Stroke-44" stroke-dasharray="2,1" transform="translate(226.881673, 54.750000) scale(-1, 1) translate(-226.881673, -54.750000) "></line>
                                <line x1="226.881673" y1="38" x2="226.881673" y2="37" id="Stroke-45" transform="translate(226.881673, 37.500000) scale(-1, 1) translate(-226.881673, -37.500000) "></line>
                                <line x1="179.037855" y1="58" x2="179.037855" y2="57" id="Stroke-46" transform="translate(179.037855, 57.500000) scale(-1, 1) translate(-179.037855, -57.500000) "></line>
                                <line x1="179.037855" y1="56" x2="179.037855" y2="53.5" id="Stroke-47" stroke-dasharray="2,1" transform="translate(179.037855, 54.750000) scale(-1, 1) translate(-179.037855, -54.750000) "></line>
                                <line x1="179.037855" y1="53" x2="179.037855" y2="52" id="Stroke-48" transform="translate(179.037855, 52.500000) scale(-1, 1) translate(-179.037855, -52.500000) "></line>
                                <line x1="171.924503" y1="61" x2="171.924503" y2="60" id="Stroke-49" transform="translate(171.924503, 60.500000) scale(-1, 1) translate(-171.924503, -60.500000) "></line>
                                <line x1="171.924503" y1="59" x2="171.924503" y2="50.5" id="Stroke-50" stroke-dasharray="2,1" transform="translate(171.924503, 54.750000) scale(-1, 1) translate(-171.924503, -54.750000) "></line>
                                <line x1="171.924503" y1="50" x2="171.924503" y2="49" id="Stroke-51" transform="translate(171.924503, 49.500000) scale(-1, 1) translate(-171.924503, -49.500000) "></line>
                                <line x1="165.136008" y1="54" x2="165.136008" y2="55" id="Stroke-52" transform="translate(165.136008, 54.500000) scale(-1, 1) translate(-165.136008, -54.500000) "></line>
                                <line x1="165.136008" y1="55" x2="165.136008" y2="56" id="Stroke-53" transform="translate(165.136008, 55.500000) scale(-1, 1) translate(-165.136008, -55.500000) "></line>
                                <line x1="220.093178" y1="88" x2="220.093178" y2="87" id="Stroke-54" transform="translate(220.093178, 87.500000) scale(-1, 1) translate(-220.093178, -87.500000) "></line>
                                <line x1="220.093178" y1="86" x2="220.093178" y2="23.5" id="Stroke-55" stroke-dasharray="2,1" transform="translate(220.093178, 54.750000) scale(-1, 1) translate(-220.093178, -54.750000) "></line>
                                <line x1="220.093178" y1="23" x2="220.093178" y2="22" id="Stroke-56" transform="translate(220.093178, 22.500000) scale(-1, 1) translate(-220.093178, -22.500000) "></line>
                                <line x1="213.305313" y1="68" x2="213.305313" y2="67" id="Stroke-57" transform="translate(213.305313, 67.500000) scale(-1, 1) translate(-213.305313, -67.500000) "></line>
                                <line x1="213.305313" y1="66.04" x2="213.305313" y2="43.48" id="Stroke-58" stroke-dasharray="1.92,0.96" transform="translate(213.305313, 54.760000) scale(-1, 1) translate(-213.305313, -54.760000) "></line>
                                <line x1="213.305313" y1="43" x2="213.305313" y2="42" id="Stroke-59" transform="translate(213.305313, 42.500000) scale(-1, 1) translate(-213.305313, -42.500000) "></line>
                                <line x1="206.516818" y1="61" x2="206.516818" y2="60" id="Stroke-60" transform="translate(206.516818, 60.500000) scale(-1, 1) translate(-206.516818, -60.500000) "></line>
                                <line x1="206.516818" y1="59" x2="206.516818" y2="50.5" id="Stroke-61" stroke-dasharray="2,1" transform="translate(206.516818, 54.750000) scale(-1, 1) translate(-206.516818, -54.750000) "></line>
                                <line x1="206.516818" y1="50" x2="206.516818" y2="49" id="Stroke-62" transform="translate(206.516818, 49.500000) scale(-1, 1) translate(-206.516818, -49.500000) "></line>
                                <line x1="199.728324" y1="58" x2="199.728324" y2="57" id="Stroke-63" transform="translate(199.728324, 57.500000) scale(-1, 1) translate(-199.728324, -57.500000) "></line>
                                <line x1="199.728324" y1="56" x2="199.728324" y2="53.5" id="Stroke-64" stroke-dasharray="2,1" transform="translate(199.728324, 54.750000) scale(-1, 1) translate(-199.728324, -54.750000) "></line>
                                <line x1="199.728324" y1="53" x2="199.728324" y2="52" id="Stroke-65" transform="translate(199.728324, 52.500000) scale(-1, 1) translate(-199.728324, -52.500000) "></line>
                                <line x1="158.063231" y1="61" x2="158.063231" y2="60" id="Stroke-66" transform="translate(158.063231, 60.500000) scale(-1, 1) translate(-158.063231, -60.500000) "></line>
                                <line x1="158.063231" y1="59" x2="158.063231" y2="50.5" id="Stroke-67" stroke-dasharray="2,1" transform="translate(158.063231, 54.750000) scale(-1, 1) translate(-158.063231, -54.750000) "></line>
                                <line x1="158.063231" y1="50" x2="158.063231" y2="49" id="Stroke-68" transform="translate(158.063231, 49.500000) scale(-1, 1) translate(-158.063231, -49.500000) "></line>
                                <line x1="151.274736" y1="73" x2="151.274736" y2="72" id="Stroke-69" transform="translate(151.274736, 72.500000) scale(-1, 1) translate(-151.274736, -72.500000) "></line>
                                <line x1="151.274736" y1="71" x2="151.274736" y2="38.5" id="Stroke-70" stroke-dasharray="2,1" transform="translate(151.274736, 54.750000) scale(-1, 1) translate(-151.274736, -54.750000) "></line>
                                <line x1="151.274736" y1="38" x2="151.274736" y2="37" id="Stroke-71" transform="translate(151.274736, 37.500000) scale(-1, 1) translate(-151.274736, -37.500000) "></line>
                                <line x1="144.486242" y1="62" x2="144.486242" y2="61" id="Stroke-72" transform="translate(144.486242, 61.500000) scale(-1, 1) translate(-144.486242, -61.500000) "></line>
                                <line x1="144.486242" y1="60.0771" x2="144.486242" y2="49.4621" id="Stroke-73" stroke-dasharray="1.846,0.923" transform="translate(144.486242, 54.769600) scale(-1, 1) translate(-144.486242, -54.769600) "></line>
                                <line x1="144.486242" y1="49" x2="144.486242" y2="48" id="Stroke-74" transform="translate(144.486242, 48.500000) scale(-1, 1) translate(-144.486242, -48.500000) "></line>
                                <line x1="137.698377" y1="68" x2="137.698377" y2="67" id="Stroke-75" transform="translate(137.698377, 67.500000) scale(-1, 1) translate(-137.698377, -67.500000) "></line>
                                <line x1="137.698377" y1="66.04" x2="137.698377" y2="43.48" id="Stroke-76" stroke-dasharray="1.92,0.96" transform="translate(137.698377, 54.760000) scale(-1, 1) translate(-137.698377, -54.760000) "></line>
                                <line x1="137.698377" y1="43" x2="137.698377" y2="42" id="Stroke-77" transform="translate(137.698377, 42.500000) scale(-1, 1) translate(-137.698377, -42.500000) "></line>
                                <line x1="130.909882" y1="61" x2="130.909882" y2="60" id="Stroke-78" transform="translate(130.909882, 60.500000) scale(-1, 1) translate(-130.909882, -60.500000) "></line>
                                <line x1="130.909882" y1="59" x2="130.909882" y2="50.5" id="Stroke-79" stroke-dasharray="2,1" transform="translate(130.909882, 54.750000) scale(-1, 1) translate(-130.909882, -54.750000) "></line>
                                <line x1="130.909882" y1="50" x2="130.909882" y2="49" id="Stroke-80" transform="translate(130.909882, 49.500000) scale(-1, 1) translate(-130.909882, -49.500000) "></line>
                                <line x1="124.121387" y1="58" x2="124.121387" y2="57" id="Stroke-81" transform="translate(124.121387, 57.500000) scale(-1, 1) translate(-124.121387, -57.500000) "></line>
                                <line x1="124.121387" y1="56" x2="124.121387" y2="53.5" id="Stroke-82" stroke-dasharray="2,1" transform="translate(124.121387, 54.750000) scale(-1, 1) translate(-124.121387, -54.750000) "></line>
                                <line x1="124.121387" y1="53" x2="124.121387" y2="52" id="Stroke-83" transform="translate(124.121387, 52.500000) scale(-1, 1) translate(-124.121387, -52.500000) "></line>
                                <line x1="192.939703" y1="73" x2="192.939703" y2="72" id="Stroke-84" transform="translate(192.939703, 72.500000) scale(-1, 1) translate(-192.939703, -72.500000) "></line>
                                <line x1="192.939703" y1="71" x2="192.939703" y2="38.5" id="Stroke-85" stroke-dasharray="2,1" transform="translate(192.939703, 54.750000) scale(-1, 1) translate(-192.939703, -54.750000) "></line>
                                <line x1="192.939703" y1="38" x2="192.939703" y2="37" id="Stroke-86" transform="translate(192.939703, 37.500000) scale(-1, 1) translate(-192.939703, -37.500000) "></line>
                                <line x1="186.151838" y1="63" x2="186.151838" y2="62" id="Stroke-87" transform="translate(186.151838, 62.500000) scale(-1, 1) translate(-186.151838, -62.500000) "></line>
                                <line x1="186.151838" y1="60.9229" x2="186.151838" y2="48.5379" id="Stroke-88" stroke-dasharray="2.154,1.077" transform="translate(186.151838, 54.730400) scale(-1, 1) translate(-186.151838, -54.730400) "></line>
                                <line x1="186.151838" y1="48" x2="186.151838" y2="47" id="Stroke-89" transform="translate(186.151838, 47.500000) scale(-1, 1) translate(-186.151838, -47.500000) "></line>
                                <line x1="116.032075" y1="44" x2="116.032075" y2="45" id="Stroke-90" transform="translate(116.032075, 44.500000) scale(-1, 1) translate(-116.032075, -44.500000) "></line>
                                <line x1="116.032075" y1="46.0527" x2="116.032075" y2="64.4737" id="Stroke-91" stroke-dasharray="2.105,1.053" transform="translate(116.032075, 55.263200) scale(-1, 1) translate(-116.032075, -55.263200) "></line>
                                <line x1="116.032075" y1="65" x2="116.032075" y2="66" id="Stroke-92" transform="translate(116.032075, 65.500000) scale(-1, 1) translate(-116.032075, -65.500000) "></line>
                                <line x1="109.24421" y1="59" x2="109.24421" y2="58" id="Stroke-93" transform="translate(109.244210, 58.500000) scale(-1, 1) translate(-109.244210, -58.500000) "></line>
                                <line x1="109.24421" y1="57.1426" x2="109.24421" y2="52.4286" id="Stroke-94" stroke-dasharray="1.714,0.857" transform="translate(109.244210, 54.785600) scale(-1, 1) translate(-109.244210, -54.785600) "></line>
                                <line x1="109.24421" y1="52" x2="109.24421" y2="51" id="Stroke-95" transform="translate(109.244210, 51.500000) scale(-1, 1) translate(-109.244210, -51.500000) "></line>
                                <line x1="102.455716" y1="58" x2="102.455716" y2="57" id="Stroke-96" transform="translate(102.455716, 57.500000) scale(-1, 1) translate(-102.455716, -57.500000) "></line>
                                <line x1="102.455716" y1="56" x2="102.455716" y2="53.5" id="Stroke-97" stroke-dasharray="2,1" transform="translate(102.455716, 54.750000) scale(-1, 1) translate(-102.455716, -54.750000) "></line>
                                <line x1="102.455716" y1="53" x2="102.455716" y2="52" id="Stroke-98" transform="translate(102.455716, 52.500000) scale(-1, 1) translate(-102.455716, -52.500000) "></line>
                                <line x1="41.6858844" y1="65" x2="41.6858844" y2="64" id="Stroke-99" transform="translate(41.685884, 64.500000) scale(-1, 1) translate(-41.685884, -64.500000) "></line>
                                <line x1="41.6858844" y1="63.0527" x2="41.6858844" y2="46.4737" id="Stroke-100" stroke-dasharray="1.895,0.947" transform="translate(41.685884, 54.763200) scale(-1, 1) translate(-41.685884, -54.763200) "></line>
                                <line x1="41.6858844" y1="46" x2="41.6858844" y2="45" id="Stroke-101" transform="translate(41.685884, 45.500000) scale(-1, 1) translate(-41.685884, -45.500000) "></line>
                                <line x1="95.6678509" y1="57" x2="95.6678509" y2="56" id="Stroke-102" transform="translate(95.667851, 56.500000) scale(-1, 1) translate(-95.667851, -56.500000) "></line>
                                <line x1="95.6678509" y1="54" x2="95.6678509" y2="53" id="Stroke-103" transform="translate(95.667851, 53.500000) scale(-1, 1) translate(-95.667851, -53.500000) "></line>
                                <line x1="88.878726" y1="66.4004" x2="88.878726" y2="65.4004" id="Stroke-113" transform="translate(88.878726, 65.900400) scale(-1, 1) translate(-88.878726, -65.900400) "></line>
                                <line x1="88.878726" y1="64.4541" x2="88.878726" y2="45.0721" id="Stroke-114" stroke-dasharray="1.891,0.945" transform="translate(88.878726, 54.763100) scale(-1, 1) translate(-88.878726, -54.763100) "></line>
                                <line x1="88.878726" y1="44.5996" x2="88.878726" y2="43.5996" id="Stroke-115" transform="translate(88.878726, 44.099600) scale(-1, 1) translate(-88.878726, -44.099600) "></line>
                                <line x1="82.0908613" y1="78" x2="82.0908613" y2="77" id="Stroke-116" transform="translate(82.090861, 77.500000) scale(-1, 1) translate(-82.090861, -77.500000) "></line>
                                <line x1="82.0908613" y1="75.9766" x2="82.0908613" y2="33.5116" id="Stroke-117" stroke-dasharray="2.047,1.023" transform="translate(82.090861, 54.744100) scale(-1, 1) translate(-82.090861, -54.744100) "></line>
                                <line x1="82.0908613" y1="33" x2="82.0908613" y2="32" id="Stroke-118" transform="translate(82.090861, 32.500000) scale(-1, 1) translate(-82.090861, -32.500000) "></line>
                                <line x1="75.3017364" y1="68" x2="75.3017364" y2="67" id="Stroke-119" transform="translate(75.301736, 67.500000) scale(-1, 1) translate(-75.301736, -67.500000) "></line>
                                <line x1="75.3017364" y1="66.04" x2="75.3017364" y2="43.48" id="Stroke-120" stroke-dasharray="1.92,0.96" transform="translate(75.301736, 54.760000) scale(-1, 1) translate(-75.301736, -54.760000) "></line>
                                <line x1="75.3017364" y1="43" x2="75.3017364" y2="42" id="Stroke-121" transform="translate(75.301736, 42.500000) scale(-1, 1) translate(-75.301736, -42.500000) "></line>
                                <line x1="68.5137457" y1="74" x2="68.5137457" y2="73" id="Stroke-122" transform="translate(68.513746, 73.500000) scale(-1, 1) translate(-68.513746, -73.500000) "></line>
                                <line x1="68.5137457" y1="72.0273" x2="68.5137457" y2="37.4863" id="Stroke-123" stroke-dasharray="1.946,0.973" transform="translate(68.513746, 54.756800) scale(-1, 1) translate(-68.513746, -54.756800) "></line>
                                <line x1="68.5137457" y1="37" x2="68.5137457" y2="36" id="Stroke-124" transform="translate(68.513746, 36.500000) scale(-1, 1) translate(-68.513746, -36.500000) "></line>
                                <line x1="61.7258809" y1="88" x2="61.7258809" y2="87" id="Stroke-125" transform="translate(61.725881, 87.500000) scale(-1, 1) translate(-61.725881, -87.500000) "></line>
                                <line x1="61.7258809" y1="86" x2="61.7258809" y2="23.5" id="Stroke-126" stroke-dasharray="2,1" transform="translate(61.725881, 54.750000) scale(-1, 1) translate(-61.725881, -54.750000) "></line>
                                <line x1="61.7258809" y1="23" x2="61.7258809" y2="22" id="Stroke-127" transform="translate(61.725881, 22.500000) scale(-1, 1) translate(-61.725881, -22.500000) "></line>
                                <line x1="54.9367561" y1="84" x2="54.9367561" y2="83" id="Stroke-128" transform="translate(54.936756, 83.500000) scale(-1, 1) translate(-54.936756, -83.500000) "></line>
                                <line x1="54.9367561" y1="81.9814" x2="54.9367561" y2="27.5084" id="Stroke-129" stroke-dasharray="2.036,1.018" transform="translate(54.936756, 54.744900) scale(-1, 1) translate(-54.936756, -54.744900) "></line>
                                <line x1="54.9367561" y1="27" x2="54.9367561" y2="26" id="Stroke-130" transform="translate(54.936756, 26.500000) scale(-1, 1) translate(-54.936756, -26.500000) "></line>
                                <line x1="48.1488913" y1="78" x2="48.1488913" y2="77" id="Stroke-131" transform="translate(48.148891, 77.500000) scale(-1, 1) translate(-48.148891, -77.500000) "></line>
                                <line x1="48.1488913" y1="75.9766" x2="48.1488913" y2="33.5116" id="Stroke-132" stroke-dasharray="2.047,1.023" transform="translate(48.148891, 54.744100) scale(-1, 1) translate(-48.148891, -54.744100) "></line>
                                <line x1="48.1488913" y1="33" x2="48.1488913" y2="32" id="Stroke-133" transform="translate(48.148891, 32.500000) scale(-1, 1) translate(-48.148891, -32.500000) "></line>
                                <line x1="34.5719017" y1="84" x2="34.5719017" y2="83" id="Stroke-134" transform="translate(34.571902, 83.500000) scale(-1, 1) translate(-34.571902, -83.500000) "></line>
                                <line x1="34.5719017" y1="81.9814" x2="34.5719017" y2="27.5084" id="Stroke-135" stroke-dasharray="2.036,1.018" transform="translate(34.571902, 54.744900) scale(-1, 1) translate(-34.571902, -54.744900) "></line>
                                <line x1="34.5719017" y1="27" x2="34.5719017" y2="26" id="Stroke-136" transform="translate(34.571902, 26.500000) scale(-1, 1) translate(-34.571902, -26.500000) "></line>
                                <line x1="27.784037" y1="95" x2="27.784037" y2="94" id="Stroke-137" transform="translate(27.784037, 94.500000) scale(-1, 1) translate(-27.784037, -94.500000) "></line>
                                <line x1="27.784037" y1="93.0127" x2="27.784037" y2="16.4937" id="Stroke-138" stroke-dasharray="1.975,0.987" transform="translate(27.784037, 54.753200) scale(-1, 1) translate(-27.784037, -54.753200) "></line>
                                <line x1="27.784037" y1="16" x2="27.784037" y2="15" id="Stroke-139" transform="translate(27.784037, 15.500000) scale(-1, 1) translate(-27.784037, -15.500000) "></line>
                                <g id="Group-164" transform="translate(21.523657, 55.000000) scale(-1, 1) translate(-21.523657, -55.000000) translate(20.263541, 0.000000)">
                                    <line x1="1.78886012" y1="110" x2="1.78886012" y2="109" id="Stroke-158"></line>
                                    <line x1="1.78886012" y1="108.0088" x2="1.78886012" y2="1.4958" id="Stroke-160" stroke-dasharray="1.982,0.991"></line>
                                    <line x1="1.78886012" y1="1" x2="1.78886012" y2="0" id="Stroke-162"></line>
                                </g>
                                <line x1="14.2070474" y1="84" x2="14.2070474" y2="83" id="Stroke-165" transform="translate(14.207047, 83.500000) scale(-1, 1) translate(-14.207047, -83.500000) "></line>
                                <line x1="14.2070474" y1="81.9814" x2="14.2070474" y2="27.5084" id="Stroke-166" stroke-dasharray="2.036,1.018" transform="translate(14.207047, 54.744900) scale(-1, 1) translate(-14.207047, -54.744900) "></line>
                                <line x1="14.2070474" y1="27" x2="14.2070474" y2="26" id="Stroke-167" transform="translate(14.207047, 26.500000) scale(-1, 1) translate(-14.207047, -26.500000) "></line>
                                <line x1="7.41792254" y1="73" x2="7.41792254" y2="72" id="Stroke-168" transform="translate(7.417923, 72.500000) scale(-1, 1) translate(-7.417923, -72.500000) "></line>
                                <line x1="7.41792254" y1="71" x2="7.41792254" y2="38.5" id="Stroke-169" stroke-dasharray="2,1" transform="translate(7.417923, 54.750000) scale(-1, 1) translate(-7.417923, -54.750000) "></line>
                                <line x1="7.41792254" y1="38" x2="7.41792254" y2="37" id="Stroke-170" transform="translate(7.417923, 37.500000) scale(-1, 1) translate(-7.417923, -37.500000) "></line>
                                <line x1="0.630057803" y1="63" x2="0.630057803" y2="62" id="Stroke-171" transform="translate(0.630058, 62.500000) scale(-1, 1) translate(-0.630058, -62.500000) "></line>
                                <line x1="0.630057803" y1="60.9229" x2="0.630057803" y2="48.5379" id="Stroke-172" stroke-dasharray="2.154,1.077" transform="translate(0.630058, 54.730400) scale(-1, 1) translate(-0.630058, -54.730400) "></line>
                                <line x1="0.630057803" y1="48" x2="0.630057803" y2="47" id="Stroke-173" transform="translate(0.630058, 47.500000) scale(-1, 1) translate(-0.630058, -47.500000) "></line>
                            </g>
                            <g id="Group-11" transform="translate(0.000000, 37.000000)">
                                <line x1="9.10546936" y1="15" x2="9.10546936" y2="16" id="Stroke-104" transform="translate(9.105469, 15.500000) scale(-1, 1) translate(-9.105469, -15.500000) "></line>
                                <line x1="9.10546936" y1="17" x2="9.10546936" y2="19.5" id="Stroke-105" stroke-dasharray="2,1" transform="translate(9.105469, 18.250000) scale(-1, 1) translate(-9.105469, -18.250000) "></line>
                                <line x1="9.10546936" y1="20" x2="9.10546936" y2="21" id="Stroke-106" transform="translate(9.105469, 20.500000) scale(-1, 1) translate(-9.105469, -20.500000) "></line>
                                <line x1="17.1940254" y1="5" x2="17.1940254" y2="6" id="Stroke-107" transform="translate(17.194025, 5.500000) scale(-1, 1) translate(-17.194025, -5.500000) "></line>
                                <line x1="17.1940254" y1="6.96" x2="17.1940254" y2="29.52" id="Stroke-108" stroke-dasharray="1.92,0.96" transform="translate(17.194025, 18.240000) scale(-1, 1) translate(-17.194025, -18.240000) "></line>
                                <line x1="17.1940254" y1="30" x2="17.1940254" y2="31" id="Stroke-109" transform="translate(17.194025, 30.500000) scale(-1, 1) translate(-17.194025, -30.500000) "></line>
                                <line x1="30.771141" y1="15" x2="30.771141" y2="16" id="Stroke-110" transform="translate(30.771141, 15.500000) scale(-1, 1) translate(-30.771141, -15.500000) "></line>
                                <line x1="30.771141" y1="17" x2="30.771141" y2="19.5" id="Stroke-111" stroke-dasharray="2,1" transform="translate(30.771141, 18.250000) scale(-1, 1) translate(-30.771141, -18.250000) "></line>
                                <line x1="30.771141" y1="20" x2="30.771141" y2="21" id="Stroke-112" transform="translate(30.771141, 20.500000) scale(-1, 1) translate(-30.771141, -20.500000) "></line>
                                <line x1="99.549511" y1="21" x2="99.549511" y2="20" id="Stroke-140" transform="translate(99.549511, 20.500000) scale(-1, 1) translate(-99.549511, -20.500000) "></line>
                                <line x1="99.549511" y1="19" x2="99.549511" y2="16.5" id="Stroke-141" stroke-dasharray="2,1" transform="translate(99.549511, 17.750000) scale(-1, 1) translate(-99.549511, -17.750000) "></line>
                                <line x1="99.549511" y1="16" x2="99.549511" y2="15" id="Stroke-142" transform="translate(99.549511, 15.500000) scale(-1, 1) translate(-99.549511, -15.500000) "></line>
                                <line x1="92.4355283" y1="24" x2="92.4355283" y2="23" id="Stroke-143" transform="translate(92.435528, 23.500000) scale(-1, 1) translate(-92.435528, -23.500000) "></line>
                                <line x1="92.4355283" y1="22" x2="92.4355283" y2="13.5" id="Stroke-144" stroke-dasharray="2,1" transform="translate(92.435528, 17.750000) scale(-1, 1) translate(-92.435528, -17.750000) "></line>
                                <line x1="92.4355283" y1="13" x2="92.4355283" y2="12" id="Stroke-145" transform="translate(92.435528, 12.500000) scale(-1, 1) translate(-92.435528, -12.500000) "></line>
                                <line x1="85.6476636" y1="17" x2="85.6476636" y2="18" id="Stroke-146" transform="translate(85.647664, 17.500000) scale(-1, 1) translate(-85.647664, -17.500000) "></line>
                                <line x1="85.6476636" y1="18" x2="85.6476636" y2="19" id="Stroke-147" transform="translate(85.647664, 18.500000) scale(-1, 1) translate(-85.647664, -18.500000) "></line>
                                <g id="Group-152" transform="translate(1.260116, 18.000000) scale(-1, 1) translate(-1.260116, -18.000000) translate(-0.000000, 17.000000)">
                                    <line x1="0.99637341" y1="0" x2="0.99637341" y2="1" id="Stroke-148"></line>
                                    <line x1="0.99637341" y1="1" x2="0.99637341" y2="2" id="Stroke-150"></line>
                                </g>
                                <line x1="24.2059387" y1="24" x2="24.2059387" y2="23" id="Stroke-153" transform="translate(24.205939, 23.500000) scale(-1, 1) translate(-24.205939, -23.500000) "></line>
                                <line x1="24.2059387" y1="22" x2="24.2059387" y2="13.5" id="Stroke-154" stroke-dasharray="2,1" transform="translate(24.205939, 17.750000) scale(-1, 1) translate(-24.205939, -17.750000) "></line>
                                <line x1="24.2059387" y1="13" x2="24.2059387" y2="12" id="Stroke-155" transform="translate(24.205939, 12.500000) scale(-1, 1) translate(-24.205939, -12.500000) "></line>
                                <line x1="38.0672104" y1="17" x2="38.0672104" y2="18" id="Stroke-156" transform="translate(38.067210, 17.500000) scale(-1, 1) translate(-38.067210, -17.500000) "></line>
                                <line x1="38.0672104" y1="18" x2="38.0672104" y2="19" id="Stroke-157" transform="translate(38.067210, 18.500000) scale(-1, 1) translate(-38.067210, -18.500000) "></line>
                                <line x1="78.5742566" y1="24" x2="78.5742566" y2="23" id="Stroke-174" transform="translate(78.574257, 23.500000) scale(-1, 1) translate(-78.574257, -23.500000) "></line>
                                <line x1="78.5742566" y1="22" x2="78.5742566" y2="13.5" id="Stroke-175" stroke-dasharray="2,1" transform="translate(78.574257, 17.750000) scale(-1, 1) translate(-78.574257, -17.750000) "></line>
                                <line x1="78.5742566" y1="13" x2="78.5742566" y2="12" id="Stroke-176" transform="translate(78.574257, 12.500000) scale(-1, 1) translate(-78.574257, -12.500000) "></line>
                                <line x1="71.7863919" y1="36" x2="71.7863919" y2="35" id="Stroke-177" transform="translate(71.786392, 35.500000) scale(-1, 1) translate(-71.786392, -35.500000) "></line>
                                <line x1="71.7863919" y1="34" x2="71.7863919" y2="1.5" id="Stroke-178" stroke-dasharray="2,1" transform="translate(71.786392, 17.750000) scale(-1, 1) translate(-71.786392, -17.750000) "></line>
                                <line x1="71.7863919" y1="1" x2="71.7863919" y2="0" id="Stroke-179" transform="translate(71.786392, 0.500000) scale(-1, 1) translate(-71.786392, -0.500000) "></line>
                                <line x1="64.9972671" y1="25" x2="64.9972671" y2="24" id="Stroke-180" transform="translate(64.997267, 24.500000) scale(-1, 1) translate(-64.997267, -24.500000) "></line>
                                <line x1="64.9972671" y1="23.0771" x2="64.9972671" y2="12.4621" id="Stroke-181" stroke-dasharray="1.846,0.923" transform="translate(64.997267, 17.769600) scale(-1, 1) translate(-64.997267, -17.769600) "></line>
                                <line x1="64.9972671" y1="12" x2="64.9972671" y2="11" id="Stroke-182" transform="translate(64.997267, 11.500000) scale(-1, 1) translate(-64.997267, -11.500000) "></line>
                                <line x1="58.2094023" y1="31" x2="58.2094023" y2="30" id="Stroke-183" transform="translate(58.209402, 30.500000) scale(-1, 1) translate(-58.209402, -30.500000) "></line>
                                <line x1="58.2094023" y1="29.04" x2="58.2094023" y2="6.48" id="Stroke-184" stroke-dasharray="1.92,0.96" transform="translate(58.209402, 17.760000) scale(-1, 1) translate(-58.209402, -17.760000) "></line>
                                <line x1="58.2094023" y1="6" x2="58.2094023" y2="5" id="Stroke-185" transform="translate(58.209402, 5.500000) scale(-1, 1) translate(-58.209402, -5.500000) "></line>
                                <line x1="51.4202775" y1="24" x2="51.4202775" y2="23" id="Stroke-186" transform="translate(51.420277, 23.500000) scale(-1, 1) translate(-51.420277, -23.500000) "></line>
                                <line x1="51.4202775" y1="22" x2="51.4202775" y2="13.5" id="Stroke-187" stroke-dasharray="2,1" transform="translate(51.420277, 17.750000) scale(-1, 1) translate(-51.420277, -17.750000) "></line>
                                <line x1="51.4202775" y1="13" x2="51.4202775" y2="12" id="Stroke-188" transform="translate(51.420277, 12.500000) scale(-1, 1) translate(-51.420277, -12.500000) "></line>
                                <line x1="44.6324127" y1="21" x2="44.6324127" y2="20" id="Stroke-189" transform="translate(44.632413, 20.500000) scale(-1, 1) translate(-44.632413, -20.500000) "></line>
                                <line x1="44.6324127" y1="19" x2="44.6324127" y2="16.5" id="Stroke-190" stroke-dasharray="2,1" transform="translate(44.632413, 17.750000) scale(-1, 1) translate(-44.632413, -17.750000) "></line>
                                <line x1="44.6324127" y1="16" x2="44.6324127" y2="15" id="Stroke-191" transform="translate(44.632413, 15.500000) scale(-1, 1) translate(-44.632413, -15.500000) "></line>
                                <line x1="113.451358" y1="36" x2="113.451358" y2="35" id="Stroke-192" transform="translate(113.451358, 35.500000) scale(-1, 1) translate(-113.451358, -35.500000) "></line>
                                <line x1="113.451358" y1="34" x2="113.451358" y2="1.5" id="Stroke-193" stroke-dasharray="2,1" transform="translate(113.451358, 17.750000) scale(-1, 1) translate(-113.451358, -17.750000) "></line>
                                <line x1="113.451358" y1="1" x2="113.451358" y2="0" id="Stroke-194" transform="translate(113.451358, 0.500000) scale(-1, 1) translate(-113.451358, -0.500000) "></line>
                                <line x1="106.662234" y1="26" x2="106.662234" y2="25" id="Stroke-195" transform="translate(106.662234, 25.500000) scale(-1, 1) translate(-106.662234, -25.500000) "></line>
                                <line x1="106.662234" y1="23.9229" x2="106.662234" y2="11.5379" id="Stroke-196" stroke-dasharray="2.154,1.077" transform="translate(106.662234, 17.730400) scale(-1, 1) translate(-106.662234, -17.730400) "></line>
                                <line x1="106.662234" y1="11" x2="106.662234" y2="10" id="Stroke-197" transform="translate(106.662234, 10.500000) scale(-1, 1) translate(-106.662234, -10.500000) "></line>
                            </g>
                        </g>
                        <g id="Group-2">
                            <g id="Group-198-Copy">
                                <g id="Group-7" transform="translate(0.000000, 44.000000)">
                                    <line x1="1.0002" y1="0" x2="1.0002" y2="1" id="Stroke-1"></line>
                                    <line x1="1.0002" y1="2.0527" x2="1.0002" y2="20.4737" id="Stroke-3" stroke-dasharray="2.105,1.053"></line>
                                    <line x1="1.0002" y1="21" x2="1.0002" y2="22" id="Stroke-5"></line>
                                </g>
                                <line x1="6.3869" y1="59" x2="6.3869" y2="58" id="Stroke-8"></line>
                                <line x1="6.3869" y1="57.1426" x2="6.3869" y2="52.4286" id="Stroke-9" stroke-dasharray="1.714,0.857"></line>
                                <line x1="6.3869" y1="52" x2="6.3869" y2="51" id="Stroke-10"></line>
                                <line x1="11.7741" y1="58" x2="11.7741" y2="57" id="Stroke-11"></line>
                                <line x1="11.7741" y1="56" x2="11.7741" y2="53.5" id="Stroke-12" stroke-dasharray="2,1"></line>
                                <line x1="11.7741" y1="53" x2="11.7741" y2="52" id="Stroke-13"></line>
                                <line x1="60.0002" y1="58" x2="60.0002" y2="57" id="Stroke-14"></line>
                                <line x1="60.0002" y1="56" x2="60.0002" y2="53.5" id="Stroke-15" stroke-dasharray="2,1"></line>
                                <line x1="60.0002" y1="53" x2="60.0002" y2="52" id="Stroke-16"></line>
                                <line x1="17.1613" y1="57" x2="17.1613" y2="56" id="Stroke-17"></line>
                                <line x1="17.1613" y1="54" x2="17.1613" y2="53" id="Stroke-18"></line>
                                <line x1="22.5485" y1="66.4004" x2="22.5485" y2="65.4004" id="Stroke-19"></line>
                                <line x1="22.5485" y1="64.4541" x2="22.5485" y2="45.0721" id="Stroke-20" stroke-dasharray="1.891,0.945"></line>
                                <line x1="22.5485" y1="44.5996" x2="22.5485" y2="43.5996" id="Stroke-21"></line>
                                <line x1="27.9357" y1="78" x2="27.9357" y2="77" id="Stroke-22"></line>
                                <line x1="27.9357" y1="75.9766" x2="27.9357" y2="33.5116" id="Stroke-23" stroke-dasharray="2.047,1.023"></line>
                                <line x1="27.9357" y1="33" x2="27.9357" y2="32" id="Stroke-24"></line>
                                <line x1="33.3224" y1="105" x2="33.3224" y2="104" id="Stroke-25"></line>
                                <line x1="33.3224" y1="102.9893" x2="33.3224" y2="6.5053" id="Stroke-26" stroke-dasharray="2.021,1.01"></line>
                                <line x1="33.3224" y1="6" x2="33.3224" y2="5" id="Stroke-27"></line>
                                <line x1="38.7097" y1="74" x2="38.7097" y2="73" id="Stroke-28"></line>
                                <line x1="38.7097" y1="72.0273" x2="38.7097" y2="37.4863" id="Stroke-29" stroke-dasharray="1.946,0.973"></line>
                                <line x1="38.7097" y1="37" x2="38.7097" y2="36" id="Stroke-30"></line>
                                <line x1="44.0969" y1="65" x2="44.0969" y2="64" id="Stroke-31"></line>
                                <line x1="44.0969" y1="63.0527" x2="44.0969" y2="46.4737" id="Stroke-32" stroke-dasharray="1.895,0.947"></line>
                                <line x1="44.0969" y1="46" x2="44.0969" y2="45" id="Stroke-33"></line>
                                <line x1="49.4841" y1="74" x2="49.4841" y2="73" id="Stroke-34"></line>
                                <line x1="49.4841" y1="72.0273" x2="49.4841" y2="37.4863" id="Stroke-35" stroke-dasharray="1.946,0.973"></line>
                                <line x1="49.4841" y1="37" x2="49.4841" y2="36" id="Stroke-36"></line>
                                <line x1="54.8708" y1="61" x2="54.8708" y2="60" id="Stroke-37"></line>
                                <line x1="54.8708" y1="59" x2="54.8708" y2="50.5" id="Stroke-38" stroke-dasharray="2,1"></line>
                                <line x1="54.8708" y1="50" x2="54.8708" y2="49" id="Stroke-39"></line>
                                <line x1="65.6452" y1="61" x2="65.6452" y2="60" id="Stroke-40"></line>
                                <line x1="65.6452" y1="59" x2="65.6452" y2="50.5" id="Stroke-41" stroke-dasharray="2,1"></line>
                                <line x1="65.6452" y1="50" x2="65.6452" y2="49" id="Stroke-42"></line>
                                <line x1="71.0324" y1="73" x2="71.0324" y2="72" id="Stroke-43"></line>
                                <line x1="71.0324" y1="71" x2="71.0324" y2="38.5" id="Stroke-44" stroke-dasharray="2,1"></line>
                                <line x1="71.0324" y1="38" x2="71.0324" y2="37" id="Stroke-45"></line>
                                <line x1="109.0002" y1="58" x2="109.0002" y2="57" id="Stroke-46"></line>
                                <line x1="109.0002" y1="56" x2="109.0002" y2="53.5" id="Stroke-47" stroke-dasharray="2,1"></line>
                                <line x1="109.0002" y1="53" x2="109.0002" y2="52" id="Stroke-48"></line>
                                <line x1="114.6452" y1="61" x2="114.6452" y2="60" id="Stroke-49"></line>
                                <line x1="114.6452" y1="59" x2="114.6452" y2="50.5" id="Stroke-50" stroke-dasharray="2,1"></line>
                                <line x1="114.6452" y1="50" x2="114.6452" y2="49" id="Stroke-51"></line>
                                <line x1="120.0324" y1="54" x2="120.0324" y2="55" id="Stroke-52"></line>
                                <line x1="120.0324" y1="55" x2="120.0324" y2="56" id="Stroke-53"></line>
                                <line x1="76.4196" y1="88" x2="76.4196" y2="87" id="Stroke-54"></line>
                                <line x1="76.4196" y1="86" x2="76.4196" y2="23.5" id="Stroke-55" stroke-dasharray="2,1"></line>
                                <line x1="76.4196" y1="23" x2="76.4196" y2="22" id="Stroke-56"></line>
                                <line x1="81.8063" y1="68" x2="81.8063" y2="67" id="Stroke-57"></line>
                                <line x1="81.8063" y1="66.04" x2="81.8063" y2="43.48" id="Stroke-58" stroke-dasharray="1.92,0.96"></line>
                                <line x1="81.8063" y1="43" x2="81.8063" y2="42" id="Stroke-59"></line>
                                <line x1="87.1935" y1="61" x2="87.1935" y2="60" id="Stroke-60"></line>
                                <line x1="87.1935" y1="59" x2="87.1935" y2="50.5" id="Stroke-61" stroke-dasharray="2,1"></line>
                                <line x1="87.1935" y1="50" x2="87.1935" y2="49" id="Stroke-62"></line>
                                <line x1="92.5807" y1="58" x2="92.5807" y2="57" id="Stroke-63"></line>
                                <line x1="92.5807" y1="56" x2="92.5807" y2="53.5" id="Stroke-64" stroke-dasharray="2,1"></line>
                                <line x1="92.5807" y1="53" x2="92.5807" y2="52" id="Stroke-65"></line>
                                <line x1="125.6452" y1="61" x2="125.6452" y2="60" id="Stroke-66"></line>
                                <line x1="125.6452" y1="59" x2="125.6452" y2="50.5" id="Stroke-67" stroke-dasharray="2,1"></line>
                                <line x1="125.6452" y1="50" x2="125.6452" y2="49" id="Stroke-68"></line>
                                <line x1="131.0324" y1="73" x2="131.0324" y2="72" id="Stroke-69"></line>
                                <line x1="131.0324" y1="71" x2="131.0324" y2="38.5" id="Stroke-70" stroke-dasharray="2,1"></line>
                                <line x1="131.0324" y1="38" x2="131.0324" y2="37" id="Stroke-71"></line>
                                <line x1="136.4196" y1="62" x2="136.4196" y2="61" id="Stroke-72"></line>
                                <line x1="136.4196" y1="60.0771" x2="136.4196" y2="49.4621" id="Stroke-73" stroke-dasharray="1.846,0.923"></line>
                                <line x1="136.4196" y1="49" x2="136.4196" y2="48" id="Stroke-74"></line>
                                <line x1="141.8063" y1="68" x2="141.8063" y2="67" id="Stroke-75"></line>
                                <line x1="141.8063" y1="66.04" x2="141.8063" y2="43.48" id="Stroke-76" stroke-dasharray="1.92,0.96"></line>
                                <line x1="141.8063" y1="43" x2="141.8063" y2="42" id="Stroke-77"></line>
                                <line x1="147.1935" y1="61" x2="147.1935" y2="60" id="Stroke-78"></line>
                                <line x1="147.1935" y1="59" x2="147.1935" y2="50.5" id="Stroke-79" stroke-dasharray="2,1"></line>
                                <line x1="147.1935" y1="50" x2="147.1935" y2="49" id="Stroke-80"></line>
                                <line x1="152.5807" y1="58" x2="152.5807" y2="57" id="Stroke-81"></line>
                                <line x1="152.5807" y1="56" x2="152.5807" y2="53.5" id="Stroke-82" stroke-dasharray="2,1"></line>
                                <line x1="152.5807" y1="53" x2="152.5807" y2="52" id="Stroke-83"></line>
                                <line x1="97.968" y1="73" x2="97.968" y2="72" id="Stroke-84"></line>
                                <line x1="97.968" y1="71" x2="97.968" y2="38.5" id="Stroke-85" stroke-dasharray="2,1"></line>
                                <line x1="97.968" y1="38" x2="97.968" y2="37" id="Stroke-86"></line>
                                <line x1="103.3547" y1="63" x2="103.3547" y2="62" id="Stroke-87"></line>
                                <line x1="103.3547" y1="60.9229" x2="103.3547" y2="48.5379" id="Stroke-88" stroke-dasharray="2.154,1.077"></line>
                                <line x1="103.3547" y1="48" x2="103.3547" y2="47" id="Stroke-89"></line>
                                <line x1="159.0002" y1="44" x2="159.0002" y2="45" id="Stroke-90"></line>
                                <line x1="159.0002" y1="46.0527" x2="159.0002" y2="64.4737" id="Stroke-91" stroke-dasharray="2.105,1.053"></line>
                                <line x1="159.0002" y1="65" x2="159.0002" y2="66" id="Stroke-92"></line>
                                <line x1="164.3869" y1="59" x2="164.3869" y2="58" id="Stroke-93"></line>
                                <line x1="164.3869" y1="57.1426" x2="164.3869" y2="52.4286" id="Stroke-94" stroke-dasharray="1.714,0.857"></line>
                                <line x1="164.3869" y1="52" x2="164.3869" y2="51" id="Stroke-95"></line>
                                <line x1="169.7741" y1="58" x2="169.7741" y2="57" id="Stroke-96"></line>
                                <line x1="169.7741" y1="56" x2="169.7741" y2="53.5" id="Stroke-97" stroke-dasharray="2,1"></line>
                                <line x1="169.7741" y1="53" x2="169.7741" y2="52" id="Stroke-98"></line>
                                <line x1="218" y1="59" x2="218" y2="54" id="Stroke-100" stroke-dasharray="1.895,0.947"></line>
                                <line x1="175.1608" y1="57" x2="175.1608" y2="56" id="Stroke-102"></line>
                                <line x1="175.1608" y1="54" x2="175.1608" y2="53" id="Stroke-103"></line>
                                <line x1="338.7741" y1="52" x2="338.7741" y2="53" id="Stroke-104"></line>
                                <line x1="338.7741" y1="54" x2="338.7741" y2="56.5" id="Stroke-105" stroke-dasharray="2,1"></line>
                                <line x1="338.7741" y1="57" x2="338.7741" y2="58" id="Stroke-106"></line>
                                <line x1="332.3552" y1="42" x2="332.3552" y2="43" id="Stroke-107"></line>
                                <line x1="332.3552" y1="43.96" x2="332.3552" y2="66.52" id="Stroke-108" stroke-dasharray="1.92,0.96"></line>
                                <line x1="332.3552" y1="67" x2="332.3552" y2="68" id="Stroke-109"></line>
                                <line x1="321.5807" y1="52" x2="321.5807" y2="53" id="Stroke-110"></line>
                                <line x1="321.5807" y1="54" x2="321.5807" y2="56.5" id="Stroke-111" stroke-dasharray="2,1"></line>
                                <line x1="321.5807" y1="57" x2="321.5807" y2="58" id="Stroke-112"></line>
                                <line x1="180.5485" y1="66.4004" x2="180.5485" y2="65.4004" id="Stroke-113"></line>
                                <line x1="180.5485" y1="64.4541" x2="180.5485" y2="45.0721" id="Stroke-114" stroke-dasharray="1.891,0.945"></line>
                                <line x1="180.5485" y1="44.5996" x2="180.5485" y2="43.5996" id="Stroke-115"></line>
                                <line x1="185.9352" y1="70.9533" x2="186" y2="36.9767" id="Stroke-117" stroke-dasharray="2.047,1.023"></line>
                                <line x1="191.3229" y1="68" x2="191.3229" y2="67" id="Stroke-119"></line>
                                <line x1="191.3229" y1="66.04" x2="191.3229" y2="43.48" id="Stroke-120" stroke-dasharray="1.92,0.96"></line>
                                <line x1="191.3229" y1="43" x2="191.3229" y2="42" id="Stroke-121"></line>
                                <line x1="196.7097" y1="74" x2="196.7097" y2="73" id="Stroke-122"></line>
                                <line x1="196.7097" y1="72.0273" x2="196.7097" y2="37.4863" id="Stroke-123" stroke-dasharray="1.946,0.973"></line>
                                <line x1="196.7097" y1="37" x2="196.7097" y2="36" id="Stroke-124"></line>
                                <line x1="202" y1="78" x2="202" y2="34" id="Stroke-126" stroke-dasharray="2,1"></line>
                                <line x1="207" y1="70" x2="207" y2="43" id="Stroke-129" stroke-dasharray="2.036,1.018"></line>
                                <line x1="213" y1="65" x2="213" y2="49" id="Stroke-132" stroke-dasharray="2.047,1.023"></line>
                                <line x1="223.6452" y1="84" x2="223.6452" y2="83" id="Stroke-134"></line>
                                <line x1="223.6452" y1="81.9814" x2="223.6452" y2="27.5084" id="Stroke-135" stroke-dasharray="2.036,1.018"></line>
                                <line x1="223.6452" y1="27" x2="223.6452" y2="26" id="Stroke-136"></line>
                                <line x1="229.0319" y1="95" x2="229.0319" y2="94" id="Stroke-137"></line>
                                <line x1="229.0319" y1="93.0127" x2="229.0319" y2="16.4937" id="Stroke-138" stroke-dasharray="1.975,0.987"></line>
                                <line x1="229.0319" y1="16" x2="229.0319" y2="15" id="Stroke-139"></line>
                                <line x1="266.9997" y1="58" x2="266.9997" y2="57" id="Stroke-140"></line>
                                <line x1="266.9997" y1="56" x2="266.9997" y2="53.5" id="Stroke-141" stroke-dasharray="2,1"></line>
                                <line x1="266.9997" y1="53" x2="266.9997" y2="52" id="Stroke-142"></line>
                                <line x1="272.6452" y1="61" x2="272.6452" y2="60" id="Stroke-143"></line>
                                <line x1="272.6452" y1="59" x2="272.6452" y2="50.5" id="Stroke-144" stroke-dasharray="2,1"></line>
                                <line x1="272.6452" y1="50" x2="272.6452" y2="49" id="Stroke-145"></line>
                                <line x1="278.0319" y1="54" x2="278.0319" y2="55" id="Stroke-146"></line>
                                <line x1="278.0319" y1="55" x2="278.0319" y2="56" id="Stroke-147"></line>
                                <g id="Group-152" transform="translate(344.000000, 54.000000)">
                                    <line x1="0.7907" y1="0" x2="0.7907" y2="1" id="Stroke-148"></line>
                                    <line x1="0.7907" y1="1" x2="0.7907" y2="2" id="Stroke-150"></line>
                                </g>
                                <line x1="326.7907" y1="61" x2="326.7907" y2="60" id="Stroke-153"></line>
                                <line x1="326.7907" y1="59" x2="326.7907" y2="50.5" id="Stroke-154" stroke-dasharray="2,1"></line>
                                <line x1="326.7907" y1="50" x2="326.7907" y2="49" id="Stroke-155"></line>
                                <line x1="315.7907" y1="54" x2="315.7907" y2="55" id="Stroke-156"></line>
                                <line x1="315.7907" y1="55" x2="315.7907" y2="56" id="Stroke-157"></line>
                                <g id="Group-164" transform="translate(233.000000, 0.000000)">
                                    <line x1="1.4196" y1="110" x2="1.4196" y2="109" id="Stroke-158"></line>
                                    <line x1="1.4196" y1="108.0088" x2="1.4196" y2="1.4958" id="Stroke-160" stroke-dasharray="1.982,0.991"></line>
                                    <line x1="1.4196" y1="1" x2="1.4196" y2="0" id="Stroke-162"></line>
                                </g>
                                <line x1="239.8063" y1="84" x2="239.8063" y2="83" id="Stroke-165"></line>
                                <line x1="239.8063" y1="81.9814" x2="239.8063" y2="27.5084" id="Stroke-166" stroke-dasharray="2.036,1.018"></line>
                                <line x1="239.8063" y1="27" x2="239.8063" y2="26" id="Stroke-167"></line>
                                <line x1="245.194" y1="73" x2="245.194" y2="72" id="Stroke-168"></line>
                                <line x1="245.194" y1="71" x2="245.194" y2="38.5" id="Stroke-169" stroke-dasharray="2,1"></line>
                                <line x1="245.194" y1="38" x2="245.194" y2="37" id="Stroke-170"></line>
                                <line x1="250.5807" y1="63" x2="250.5807" y2="62" id="Stroke-171"></line>
                                <line x1="250.5807" y1="60.9229" x2="250.5807" y2="48.5379" id="Stroke-172" stroke-dasharray="2.154,1.077"></line>
                                <line x1="250.5807" y1="48" x2="250.5807" y2="47" id="Stroke-173"></line>
                                <line x1="283.6452" y1="61" x2="283.6452" y2="60" id="Stroke-174"></line>
                                <line x1="283.6452" y1="59" x2="283.6452" y2="50.5" id="Stroke-175" stroke-dasharray="2,1"></line>
                                <line x1="283.6452" y1="50" x2="283.6452" y2="49" id="Stroke-176"></line>
                                <line x1="289.0319" y1="73" x2="289.0319" y2="72" id="Stroke-177"></line>
                                <line x1="289.0319" y1="71" x2="289.0319" y2="38.5" id="Stroke-178" stroke-dasharray="2,1"></line>
                                <line x1="289.0319" y1="38" x2="289.0319" y2="37" id="Stroke-179"></line>
                                <line x1="294.4196" y1="62" x2="294.4196" y2="61" id="Stroke-180"></line>
                                <line x1="294.4196" y1="60.0771" x2="294.4196" y2="49.4621" id="Stroke-181" stroke-dasharray="1.846,0.923"></line>
                                <line x1="294.4196" y1="49" x2="294.4196" y2="48" id="Stroke-182"></line>
                                <line x1="299.8063" y1="68" x2="299.8063" y2="67" id="Stroke-183"></line>
                                <line x1="299.8063" y1="66.04" x2="299.8063" y2="43.48" id="Stroke-184" stroke-dasharray="1.92,0.96"></line>
                                <line x1="299.8063" y1="43" x2="299.8063" y2="42" id="Stroke-185"></line>
                                <line x1="305.194" y1="61" x2="305.194" y2="60" id="Stroke-186"></line>
                                <line x1="305.194" y1="59" x2="305.194" y2="50.5" id="Stroke-187" stroke-dasharray="2,1"></line>
                                <line x1="305.194" y1="50" x2="305.194" y2="49" id="Stroke-188"></line>
                                <line x1="310.5807" y1="58" x2="310.5807" y2="57" id="Stroke-189"></line>
                                <line x1="310.5807" y1="56" x2="310.5807" y2="53.5" id="Stroke-190" stroke-dasharray="2,1"></line>
                                <line x1="310.5807" y1="53" x2="310.5807" y2="52" id="Stroke-191"></line>
                                <line x1="255.9675" y1="73" x2="255.9675" y2="72" id="Stroke-192"></line>
                                <line x1="255.9675" y1="71" x2="255.9675" y2="38.5" id="Stroke-193" stroke-dasharray="2,1"></line>
                                <line x1="255.9675" y1="38" x2="255.9675" y2="37" id="Stroke-194"></line>
                                <line x1="261.3552" y1="63" x2="261.3552" y2="62" id="Stroke-195"></line>
                                <line x1="261.3552" y1="60.9229" x2="261.3552" y2="48.5379" id="Stroke-196" stroke-dasharray="2.154,1.077"></line>
                                <line x1="261.3552" y1="48" x2="261.3552" y2="47" id="Stroke-197"></line>
                            </g>
                            <g id="Group-11" transform="translate(395.500000, 59.000000) scale(-1, 1) translate(-395.500000, -59.000000) translate(338.000000, 41.000000)">
                                <line x1="9.10546936" y1="15" x2="9.10546936" y2="16" id="Stroke-104" transform="translate(9.105469, 15.500000) scale(-1, 1) translate(-9.105469, -15.500000) "></line>
                                <line x1="9.10546936" y1="17" x2="9.10546936" y2="19.5" id="Stroke-105" stroke-dasharray="2,1" transform="translate(9.105469, 18.250000) scale(-1, 1) translate(-9.105469, -18.250000) "></line>
                                <line x1="9.10546936" y1="20" x2="9.10546936" y2="21" id="Stroke-106" transform="translate(9.105469, 20.500000) scale(-1, 1) translate(-9.105469, -20.500000) "></line>
                                <line x1="17.1940254" y1="5" x2="17.1940254" y2="6" id="Stroke-107" transform="translate(17.194025, 5.500000) scale(-1, 1) translate(-17.194025, -5.500000) "></line>
                                <line x1="17.1940254" y1="6.96" x2="17.1940254" y2="29.52" id="Stroke-108" stroke-dasharray="1.92,0.96" transform="translate(17.194025, 18.240000) scale(-1, 1) translate(-17.194025, -18.240000) "></line>
                                <line x1="17.1940254" y1="30" x2="17.1940254" y2="31" id="Stroke-109" transform="translate(17.194025, 30.500000) scale(-1, 1) translate(-17.194025, -30.500000) "></line>
                                <line x1="30.771141" y1="15" x2="30.771141" y2="16" id="Stroke-110" transform="translate(30.771141, 15.500000) scale(-1, 1) translate(-30.771141, -15.500000) "></line>
                                <line x1="30.771141" y1="17" x2="30.771141" y2="19.5" id="Stroke-111" stroke-dasharray="2,1" transform="translate(30.771141, 18.250000) scale(-1, 1) translate(-30.771141, -18.250000) "></line>
                                <line x1="30.771141" y1="20" x2="30.771141" y2="21" id="Stroke-112" transform="translate(30.771141, 20.500000) scale(-1, 1) translate(-30.771141, -20.500000) "></line>
                                <line x1="99.549511" y1="21" x2="99.549511" y2="20" id="Stroke-140" transform="translate(99.549511, 20.500000) scale(-1, 1) translate(-99.549511, -20.500000) "></line>
                                <line x1="99.549511" y1="19" x2="99.549511" y2="16.5" id="Stroke-141" stroke-dasharray="2,1" transform="translate(99.549511, 17.750000) scale(-1, 1) translate(-99.549511, -17.750000) "></line>
                                <line x1="99.549511" y1="16" x2="99.549511" y2="15" id="Stroke-142" transform="translate(99.549511, 15.500000) scale(-1, 1) translate(-99.549511, -15.500000) "></line>
                                <line x1="92.4355283" y1="24" x2="92.4355283" y2="23" id="Stroke-143" transform="translate(92.435528, 23.500000) scale(-1, 1) translate(-92.435528, -23.500000) "></line>
                                <line x1="92.4355283" y1="22" x2="92.4355283" y2="13.5" id="Stroke-144" stroke-dasharray="2,1" transform="translate(92.435528, 17.750000) scale(-1, 1) translate(-92.435528, -17.750000) "></line>
                                <line x1="92.4355283" y1="13" x2="92.4355283" y2="12" id="Stroke-145" transform="translate(92.435528, 12.500000) scale(-1, 1) translate(-92.435528, -12.500000) "></line>
                                <line x1="85.6476636" y1="17" x2="85.6476636" y2="18" id="Stroke-146" transform="translate(85.647664, 17.500000) scale(-1, 1) translate(-85.647664, -17.500000) "></line>
                                <line x1="85.6476636" y1="18" x2="85.6476636" y2="19" id="Stroke-147" transform="translate(85.647664, 18.500000) scale(-1, 1) translate(-85.647664, -18.500000) "></line>
                                <g id="Group-152" transform="translate(1.260116, 18.000000) scale(-1, 1) translate(-1.260116, -18.000000) translate(-0.000000, 17.000000)">
                                    <line x1="0.99637341" y1="0" x2="0.99637341" y2="1" id="Stroke-148"></line>
                                    <line x1="0.99637341" y1="1" x2="0.99637341" y2="2" id="Stroke-150"></line>
                                </g>
                                <line x1="24.2059387" y1="24" x2="24.2059387" y2="23" id="Stroke-153" transform="translate(24.205939, 23.500000) scale(-1, 1) translate(-24.205939, -23.500000) "></line>
                                <line x1="24.2059387" y1="22" x2="24.2059387" y2="13.5" id="Stroke-154" stroke-dasharray="2,1" transform="translate(24.205939, 17.750000) scale(-1, 1) translate(-24.205939, -17.750000) "></line>
                                <line x1="24.2059387" y1="13" x2="24.2059387" y2="12" id="Stroke-155" transform="translate(24.205939, 12.500000) scale(-1, 1) translate(-24.205939, -12.500000) "></line>
                                <line x1="38.0672104" y1="17" x2="38.0672104" y2="18" id="Stroke-156" transform="translate(38.067210, 17.500000) scale(-1, 1) translate(-38.067210, -17.500000) "></line>
                                <line x1="38.0672104" y1="18" x2="38.0672104" y2="19" id="Stroke-157" transform="translate(38.067210, 18.500000) scale(-1, 1) translate(-38.067210, -18.500000) "></line>
                                <line x1="78.5742566" y1="24" x2="78.5742566" y2="23" id="Stroke-174" transform="translate(78.574257, 23.500000) scale(-1, 1) translate(-78.574257, -23.500000) "></line>
                                <line x1="78.5742566" y1="22" x2="78.5742566" y2="13.5" id="Stroke-175" stroke-dasharray="2,1" transform="translate(78.574257, 17.750000) scale(-1, 1) translate(-78.574257, -17.750000) "></line>
                                <line x1="78.5742566" y1="13" x2="78.5742566" y2="12" id="Stroke-176" transform="translate(78.574257, 12.500000) scale(-1, 1) translate(-78.574257, -12.500000) "></line>
                                <line x1="71.7863919" y1="36" x2="71.7863919" y2="35" id="Stroke-177" transform="translate(71.786392, 35.500000) scale(-1, 1) translate(-71.786392, -35.500000) "></line>
                                <line x1="71.7863919" y1="34" x2="71.7863919" y2="1.5" id="Stroke-178" stroke-dasharray="2,1" transform="translate(71.786392, 17.750000) scale(-1, 1) translate(-71.786392, -17.750000) "></line>
                                <line x1="71.7863919" y1="1" x2="71.7863919" y2="0" id="Stroke-179" transform="translate(71.786392, 0.500000) scale(-1, 1) translate(-71.786392, -0.500000) "></line>
                                <line x1="64.9972671" y1="25" x2="64.9972671" y2="24" id="Stroke-180" transform="translate(64.997267, 24.500000) scale(-1, 1) translate(-64.997267, -24.500000) "></line>
                                <line x1="64.9972671" y1="23.0771" x2="64.9972671" y2="12.4621" id="Stroke-181" stroke-dasharray="1.846,0.923" transform="translate(64.997267, 17.769600) scale(-1, 1) translate(-64.997267, -17.769600) "></line>
                                <line x1="64.9972671" y1="12" x2="64.9972671" y2="11" id="Stroke-182" transform="translate(64.997267, 11.500000) scale(-1, 1) translate(-64.997267, -11.500000) "></line>
                                <line x1="58.2094023" y1="31" x2="58.2094023" y2="30" id="Stroke-183" transform="translate(58.209402, 30.500000) scale(-1, 1) translate(-58.209402, -30.500000) "></line>
                                <line x1="58.2094023" y1="29.04" x2="58.2094023" y2="6.48" id="Stroke-184" stroke-dasharray="1.92,0.96" transform="translate(58.209402, 17.760000) scale(-1, 1) translate(-58.209402, -17.760000) "></line>
                                <line x1="58.2094023" y1="6" x2="58.2094023" y2="5" id="Stroke-185" transform="translate(58.209402, 5.500000) scale(-1, 1) translate(-58.209402, -5.500000) "></line>
                                <line x1="51.4202775" y1="24" x2="51.4202775" y2="23" id="Stroke-186" transform="translate(51.420277, 23.500000) scale(-1, 1) translate(-51.420277, -23.500000) "></line>
                                <line x1="51.4202775" y1="22" x2="51.4202775" y2="13.5" id="Stroke-187" stroke-dasharray="2,1" transform="translate(51.420277, 17.750000) scale(-1, 1) translate(-51.420277, -17.750000) "></line>
                                <line x1="51.4202775" y1="13" x2="51.4202775" y2="12" id="Stroke-188" transform="translate(51.420277, 12.500000) scale(-1, 1) translate(-51.420277, -12.500000) "></line>
                                <line x1="44.6324127" y1="21" x2="44.6324127" y2="20" id="Stroke-189" transform="translate(44.632413, 20.500000) scale(-1, 1) translate(-44.632413, -20.500000) "></line>
                                <line x1="44.6324127" y1="19" x2="44.6324127" y2="16.5" id="Stroke-190" stroke-dasharray="2,1" transform="translate(44.632413, 17.750000) scale(-1, 1) translate(-44.632413, -17.750000) "></line>
                                <line x1="44.6324127" y1="16" x2="44.6324127" y2="15" id="Stroke-191" transform="translate(44.632413, 15.500000) scale(-1, 1) translate(-44.632413, -15.500000) "></line>
                                <line x1="113.451358" y1="36" x2="113.451358" y2="35" id="Stroke-192" transform="translate(113.451358, 35.500000) scale(-1, 1) translate(-113.451358, -35.500000) "></line>
                                <line x1="113.451358" y1="34" x2="113.451358" y2="1.5" id="Stroke-193" stroke-dasharray="2,1" transform="translate(113.451358, 17.750000) scale(-1, 1) translate(-113.451358, -17.750000) "></line>
                                <line x1="113.451358" y1="1" x2="113.451358" y2="0" id="Stroke-194" transform="translate(113.451358, 0.500000) scale(-1, 1) translate(-113.451358, -0.500000) "></line>
                                <line x1="106.662234" y1="26" x2="106.662234" y2="25" id="Stroke-195" transform="translate(106.662234, 25.500000) scale(-1, 1) translate(-106.662234, -25.500000) "></line>
                                <line x1="106.662234" y1="23.9229" x2="106.662234" y2="11.5379" id="Stroke-196" stroke-dasharray="2.154,1.077" transform="translate(106.662234, 17.730400) scale(-1, 1) translate(-106.662234, -17.730400) "></line>
                                <line x1="106.662234" y1="11" x2="106.662234" y2="10" id="Stroke-197" transform="translate(106.662234, 10.500000) scale(-1, 1) translate(-106.662234, -10.500000) "></line>
                            </g>
                        </g>
                    </g>
                </g>
            </g>
        </g>
    </g>
</svg>