<?xml version="1.0" encoding="UTF-8"?>
<svg width="328px" height="216px" viewBox="0 0 328 216" version="1.1" xmlns="http://www.w3.org/2000/svg" xmlns:xlink="http://www.w3.org/1999/xlink">
    <title>20D7B52A-2E60-41DA-8C5D-5A7D5A6CAAD1@3x</title>
    <g id="Page-1" stroke="none" stroke-width="1" fill="none" fill-rule="evenodd">
        <g id="1_AI-Labs_BGM-Project-1" transform="translate(-902.000000, -92.000000)">
            <g id="Banner">
                <g id="Group-16" transform="translate(902.000000, 92.000000)">
                    <path d="M308.340904,216 L3.66019462,216 C1.64714252,216 0,214.424474 0,212.5 C0,210.574474 1.64714252,209 3.66019462,209 L308.340904,209 C310.353956,209 312,210.574474 312,212.5 C312,214.424474 310.353956,216 308.340904,216" id="Fill-42" fill="#5A509B"></path>
                    <polygon id="Fill-57" fill="#1A2E35" points="197 209 180.577326 209 174 177 190.421558 177"></polygon>
                    <path d="M216.856556,203 L146.966786,203 C144.649127,203 142.86766,201.092788 143.007726,198.760529 L145.676644,154.239471 C145.81671,151.908313 147.82688,150 150.143444,150 L220.034309,150 C222.350873,150 224.13234,151.908313 223.992274,154.239471 L221.323356,198.760529 C221.183289,201.092788 219.17312,203 216.856556,203" id="Fill-59" fill="#7D75A9"></path>
                    <g id="Group-3" transform="translate(144.125522, 149.398406)">
                        <path d="M69.5048729,34.7392331 L31.205237,34.7392331 C29.9354378,34.7392331 28.9591943,33.6986862 29.03557,32.4279032 L30.4982285,8.15616258 C30.5750308,6.88495248 31.6762915,5.84440551 32.9460907,5.84440551 L71.2461534,5.84440551 C72.5155259,5.84440551 73.4917694,6.88495248 73.4153937,8.15616258 L71.9527352,32.4279032 C71.8763595,33.6986862 70.7746721,34.7392331 69.5048729,34.7392331" id="Fill-155" fill-opacity="0" fill="#FFFFFF"></path>
                        <path d="M49.0130615,45.2078362 L10.7134255,45.2078362 C9.44362634,45.2078362 8.46738286,44.1677164 8.54375855,42.8965063 L10.006417,18.6251928 C10.0832194,17.3535556 11.1844801,16.3134358 12.4542793,16.3134358 L50.7543419,16.3134358 C52.0241412,16.3134358 52.999958,17.3535556 52.9235823,18.6251928 L51.4609238,42.8965063 C51.3845481,44.1677164 50.2828607,45.2078362 49.0130615,45.2078362" id="Fill-157" fill-opacity="0" fill="#FFFFFF"></path>
                        <path d="M7.090231,0.213576965 C4.87490926,0.213576965 2.96338357,2.01830232 2.82983278,4.23608553 L0.220685546,47.5358252 C0.15625689,48.6045643 0.514241278,49.6113661 1.22850333,50.371273 C1.94105867,51.1286169 2.91986223,51.5459463 3.98400175,51.5459463 L72.3086715,51.5459463 C74.5244199,51.5459463 76.4355189,49.7412209 76.5690697,47.5234377 L79.178217,4.22369807 C79.2426456,3.15495893 78.8846612,2.14815712 78.1703992,1.38867743 C77.4578438,0.630906356 76.4790403,0.213576965 75.4144741,0.213576965 L7.090231,0.213576965 Z M72.3086715,51.7595232 L3.98400175,51.7595232 C2.86012705,51.7595232 1.82670847,51.3187004 1.07319187,50.5173596 C0.31796855,49.7143102 -0.0600697896,48.6511241 0.00777230522,47.5234377 L2.61691954,4.22369807 C2.75729721,1.89485484 4.7639725,3.55271368e-15 7.090231,3.55271368e-15 L75.4144741,3.55271368e-15 C76.5387755,3.55271368e-15 77.572194,0.440822856 78.3257106,1.24216363 C79.080934,2.04521302 79.4589723,3.10839915 79.3911302,4.23608553 L76.7824097,47.5358252 C76.6416053,49.8646684 74.63493,51.7595232 72.3086715,51.7595232 L72.3086715,51.7595232 Z" id="Fill-166" fill="#1A2E35"></path>
                        <path d="M35.3107931,26.446424 C35.0210775,27.0645158 34.7544026,27.586925 34.4599935,28.1435066 C34.1719846,28.6898365 33.8643484,29.2246332 33.5579923,29.7594299 C32.9303462,30.8209074 32.2834996,31.8729876 31.5752111,32.8943126 C31.2244802,33.4068973 30.859669,33.9126476 30.4927243,34.4179707 C30.105299,34.9143235 29.7370743,35.4162294 29.3249016,35.9014763 C28.5432241,36.8882019 27.6493298,37.8258047 26.7183144,38.7386327 C26.4815071,38.9658786 26.2246458,39.1850085 25.9788783,39.4071286 C25.7314039,39.6288215 25.4873431,39.8509415 25.203601,40.0538396 L24.3822423,40.6723585 C24.3822423,40.6723585 24.2350377,40.7800013 24.1317812,40.8449287 C24.0225512,40.9175449 23.9047875,40.9782007 23.7874506,41.037148 C23.5514966,41.1520524 23.303169,41.2379103 23.0514279,41.2977119 C22.5466656,41.4130434 22.0278229,41.4143249 21.5311676,41.3066821 C21.0349389,41.1994665 20.5570575,40.9811908 20.1478715,40.6629611 C19.9443452,40.5032056 19.7574595,40.3220923 19.5961745,40.1238929 L19.4801176,39.9722532 L19.4246492,39.8957927 L19.4045952,39.8616204 L19.3252328,39.7236496 L19.0180233,39.1687767 C18.9279939,38.9880906 18.8622852,38.8193648 18.7846294,38.6442317 C18.4859536,37.9475436 18.2994945,37.3029683 18.1266891,36.6562573 C17.8105194,35.373514 17.6274737,34.1364762 17.5033099,32.9011471 C17.3855462,31.6606921 17.3202642,30.4582537 17.3433049,29.1955867 C17.3582387,28.3822856 18.0281261,27.7360017 18.8400978,27.7509521 C19.5027316,27.7629124 20.0548553,28.2118512 20.227234,28.8184098 L20.2408877,28.8679597 C20.8595735,31.0498619 21.5042868,33.3248838 22.3358858,35.2637355 C22.5492257,35.731469 22.7621389,36.2026198 22.9955328,36.5610019 C23.0531346,36.6481413 23.108603,36.7493768 23.164498,36.8249831 C23.2208198,36.8899105 23.2745814,36.955265 23.3262097,37.0214739 L23.3637575,37.0710237 L23.3727178,37.0838384 L23.3522371,37.0505203 C23.3373034,37.0283083 23.3215162,37.0069506 23.304449,36.9860201 C23.2378869,36.9014436 23.1602312,36.8198572 23.0731885,36.7510854 C22.8999565,36.6101246 22.699417,36.5118792 22.4924773,36.4619022 C22.2851109,36.4119252 22.0675041,36.4072265 21.8494707,36.452932 C21.739814,36.4742897 21.6314373,36.5110249 21.5264741,36.558439 C21.4731391,36.580651 21.4240709,36.6118333 21.3737227,36.638744 C21.3302014,36.6618103 21.2482788,36.727592 21.3011871,36.6810322 L21.8362437,36.1611859 C22.0163026,35.9980131 22.1903879,35.8032309 22.3657534,35.6131474 C22.5402654,35.4209281 22.7190443,35.2410963 22.8905696,35.0416154 C24.2572251,33.4320994 25.5137972,31.6017448 26.6939937,29.6996284 C27.2798251,28.7453665 27.8549895,27.7752999 28.4118067,26.7941273 L29.2357255,25.317029 L30.0165496,23.8698315 L30.0570842,23.7946524 C30.8293747,22.3628324 32.6150298,21.8293172 34.0452607,22.602893 C35.4234366,23.3478494 35.9648933,25.0436505 35.3107931,26.446424" id="Fill-168" fill="#1A2E35"></path>
                        <path d="M17.7410132,29.0172927 L15.6600956,27.8293776 L17.8967514,25.541114 C17.8967514,25.541114 18.8311802,26.2087556 19.709714,27.1766864 C20.2626911,27.7866622 20.0971393,28.7524572 19.3692235,29.0963161 C18.8512342,29.3406482 18.2436421,29.3107474 17.7410132,29.0172927" id="Fill-170" fill="#FFC4BE"></path>
                        <path d="M15.1898518,25.378112 L16.31842,24.570364 C16.6252028,24.351234 17.0506026,24.4161614 17.2771696,24.7177321 L17.8971354,25.5412848 L15.660053,27.8291213 L14.9573113,26.2230225 C14.8254672,25.9214518 14.9227502,25.5690498 15.1898518,25.378112" id="Fill-172" fill="#FFC4BE"></path>
                        <path d="M30.8361589,24.5355082 C31.1676891,23.4005602 32.1366791,22.5492424 33.3010884,22.3339568 C34.2150366,22.1742013 34.6408631,22.0353762 35.8133793,21.9478097 C37.8324283,21.8038588 41.1528508,21.937558 43.4458283,22.0883433 C44.7774961,22.176337 46.1373247,22.3638576 47.2210915,22.542408 L47.2599194,22.5488153 C48.4550496,22.7457332 49.2738482,23.8870885 49.0690419,25.0720135 C48.5361188,28.1573464 46.9697771,33.5198368 46.7999585,38.5833195 C46.576805,45.2281261 46.6775014,49.0549981 46.5601644,50.6572525 L29.4716368,50.328344 C28.2829067,34.0789813 29.7630591,28.2107406 30.8361589,24.5355082" id="Fill-174" fill="#FFFFFF"></path>
                        <path d="M47.7159548,22.2925229 L47.6754202,22.2869699 C46.5327716,22.098595 45.1004074,21.8999684 43.6957773,21.8059946 C43.4512898,21.7880541 43.1974153,21.7743852 42.9345805,21.7607163 C42.1874641,24.8554465 37.7389001,30.0556184 36.3893117,37.9442972 C35.869189,31.3528849 35.4664032,24.4616106 36.2301601,21.7731037 C35.7676392,21.7649878 33.5450639,21.9191904 32.6217287,22.0789459 C31.3958775,22.3057647 30.3611789,23.2822386 29.9148718,24.5974455 C28.8660927,27.6913214 26.8632576,34.619331 28.0959356,51.6525212 L47.085322,51.6525212 C47.2116192,49.9597101 46.7674455,46.3562396 47.45184,40.8361293 C48.1153271,35.4851721 49.0642631,28.209032 49.6249204,24.9558277 C49.8395404,23.7046938 48.976367,22.500974 47.7159548,22.2925229" id="Fill-176" fill="#1A2E35"></path>
                        <path d="M35.9706961,50.7716871 C35.912241,50.7716871 35.8623194,50.7268359 35.8571993,50.6670343 C35.4544135,45.8628341 36.20537,38.9617352 36.2130503,38.8921091 C36.2198771,38.8293175 36.2774789,38.7844663 36.3389208,38.7913008 C36.4016428,38.7985624 36.4464441,38.8549467 36.4396173,38.9173112 C36.431937,38.986083 35.6831139,45.8658242 36.0846196,50.6478124 C36.0897398,50.710604 36.0432317,50.7657069 35.9805098,50.7712599 C35.9770963,50.7712599 35.9741096,50.7716871 35.9706961,50.7716871" id="Fill-178" fill="#FFFFFF"></path>
                        <path d="M47.0491822,29.0552239 C46.3430271,32.2486267 46.7197854,36.6739414 47.4686085,40.7122547 C48.0305458,36.1801515 48.7934494,30.2978147 49.35112,26.6567546 C48.5758427,26.1373354 47.6077061,26.5038335 47.0491822,29.0552239" id="Fill-180" fill="#000000"></path>
                        <path d="M36.1755024,21.9275199 C38.3921042,21.4427002 38.7731293,20.0762347 38.6148311,18.564537 C38.5811234,18.1967574 38.5154147,17.8144547 38.4313588,17.4368506 L41.1992309,15.176352 L43.2319337,13.5181404 C42.6802366,15.9695768 42.0679511,20.440597 43.7401094,22.1116232 C43.7401094,22.1116232 42.3777206,24.3563171 38.57771,24.08123 C35.3682242,23.8488583 36.1755024,21.9275199 36.1755024,21.9275199" id="Fill-182" fill="#FFC4BE"></path>
                        <polygon id="Fill-184" fill="#E1E1E1" points="39.5426464 23.5151656 38.9286541 24.0995122 40.889248 24.837207 40.6345201 24.0905419"></polygon>
                        <path d="M41.0431087,25.879548 C41.0431087,25.879548 40.2733783,23.9253188 39.5424757,23.515251 C42.1004214,22.8271061 43.3424864,21.4081007 43.3424864,21.4081007 L44.5090291,21.8711356 C44.5090291,21.8711356 44.8764004,24.1149752 41.0431087,25.879548" id="Fill-186" fill="#F5F5F5"></path>
                        <polygon id="Fill-188" fill="#E1E1E1" points="38.4658772 23.3658326 38.9283981 24.099683 36.862841 24.2782334 37.2780005 23.6242607"></polygon>
                        <path d="M35.825625,25.3293311 C35.825625,25.3293311 36.9153653,24.1046807 38.4659198,23.3657044 C37.3437519,23.0303886 37.2767631,21.4832371 37.2767631,21.4832371 L36.1895829,21.691261 C36.1895829,21.691261 34.1910145,23.63652 35.825625,25.3293311" id="Fill-190" fill="#F5F5F5"></path>
                        <path d="M38.4315721,17.4365943 C38.5152014,17.8146255 38.5809101,18.1965012 38.6150444,18.5647078 C39.6510231,18.3746243 41.030479,17.2939249 41.16915,16.2358646 C41.2212049,15.8386115 41.2280318,15.4528915 41.1990176,15.1765229 L38.4315721,17.4365943 Z" id="Fill-192" fill="#000000"></path>
                        <path d="M35.0745404,6.2550713 C34.0850699,7.47502292 34.1802195,11.876417 36.2743642,11.928957 C38.3689355,11.9814969 36.8747027,4.03515232 35.0745404,6.2550713" id="Fill-194" fill="#1A2E35"></path>
                        <path d="M44.0998431,9.46039168 C43.88949,12.7956096 43.9351447,14.7562461 42.2540261,16.4815208 C39.7255214,19.0769081 35.6285416,17.5852866 34.8425973,14.2650191 C34.1351621,11.276223 34.5981097,6.32422752 37.8519702,4.96972241 C41.0576159,3.63529353 44.3101963,6.12517379 44.0998431,9.46039168" id="Fill-196" fill="#FFC4BE"></path>
                        <path d="M42.4625019,6.68137092 C40.3670772,8.76374633 43.0897213,10.2882587 42.0255818,11.4095378 C44.0015361,12.4419688 43.2774604,13.2031571 43.2774604,13.2031571 C43.2774604,13.2031571 42.9455035,14.0036436 43.2983677,14.9626042 C45.5230764,14.387655 49.6576041,6.9837959 45.1471715,5.84457637 C42.4296476,7.05513061 42.4625019,6.68137092 42.4625019,6.68137092" id="Fill-198" fill="#1A2E35"></path>
                        <path d="M43.318379,8.17640968 C41.3334644,8.48524197 38.8382407,7.53567878 37.2915262,6.73476516 C35.7448118,5.93385154 35.5152581,7.44640361 36.0848756,7.90943847 C35.092845,7.94489225 33.8328594,7.15508463 34.1447624,5.39990913 C34.4293579,3.79808189 36.526916,2.28510267 39.5106881,3.63789917 C41.6210466,4.59429682 44.2250737,3.33504703 45.2384383,4.43881279 C46.2518029,5.54215139 44.6436466,7.97052148 43.318379,8.17640968" id="Fill-200" fill="#1A2E35"></path>
                        <path d="M44.6695461,6.00480181 C46.0029206,5.82710578 46.0592423,4.98902976 45.6858974,3.51193147 C47.1259419,5.55885311 46.5499241,6.18676938 45.6829107,6.68141364 C44.7408016,6.36104819 44.6695461,6.00480181 44.6695461,6.00480181" id="Fill-202" fill="#1A2E35"></path>
                        <path d="M44.9940361,12.0170788 C44.6684794,12.7376875 44.0899015,13.2622325 43.5420446,13.5087003 C42.7181258,13.87947 42.2986995,13.1204174 42.5218531,12.2255299 C42.7228193,11.4207719 43.39356,10.2576318 44.223879,10.2661749 C45.0413975,10.2742908 45.3665276,11.1926717 44.9940361,12.0170788" id="Fill-204" fill="#FFC4BE"></path>
                        <path d="M38.8990862,10.4673644 C38.8986585,10.7390343 38.7548674,10.9598728 38.5777953,10.9615871 C38.4011498,10.9628629 38.2582121,10.7441601 38.2590616,10.4729174 C38.2594921,10.2016746 38.4032832,9.97998172 38.5799287,9.97869465 C38.7565741,9.9774188 38.8995119,10.1961216 38.8990862,10.4673644" id="Fill-206" fill="#1A2E35"></path>
                        <path d="M35.8420958,10.4936343 C35.8416681,10.7648771 35.697877,10.9861428 35.5208049,10.987857 C35.3441594,10.9891329 35.2012217,10.7704301 35.2020713,10.4991873 C35.2025017,10.2275174 35.3462928,10.0062517 35.5229383,10.0045406 C35.6995837,10.0036888 35.8425215,10.2219644 35.8420958,10.4936343" id="Fill-208" fill="#1A2E35"></path>
                        <path d="M36.9745885,10.5879072 C36.9745885,10.5879072 36.356756,12.1594065 35.6779084,12.9205948 C36.1557898,13.3644077 36.9694683,13.1525394 36.9694683,13.1525394 L36.9745885,10.5879072 Z" id="Fill-210" fill="#FF857F"></path>
                        <path d="M38.0729477,13.8741732 C39.1268469,13.7391926 39.6162487,13.0023521 39.6380094,12.9681798 C39.6619034,12.9318717 39.6508098,12.8823218 39.6141153,12.8575469 C39.5769941,12.832772 39.527926,12.8425965 39.5044586,12.8793317 C39.4989117,12.8874477 38.9425212,13.7268051 37.7537912,13.7362025 C37.7094165,13.7362025 37.6752821,13.7725106 37.6769888,13.8165075 C37.6782688,13.8605043 37.7149633,13.8959581 37.7589113,13.8955348 C37.8685681,13.8946766 37.9731046,13.8869879 38.0729477,13.8741732" id="Fill-212" fill="#1A2E35"></path>
                        <path d="M40.3803043,9.38862982 C40.4059051,9.38521259 40.4310792,9.3758152 40.4532665,9.35958335 C40.5228153,9.30747057 40.5356157,9.2070894 40.4818541,9.13618184 C39.9510644,8.43479509 39.2167484,8.48434495 39.1860274,8.48690787 C39.1028248,8.48519925 39.0349827,8.57020289 39.043943,8.6581966 C39.05333,8.74576315 39.1309857,8.8111177 39.2180284,8.80428324 C39.2487493,8.80257463 39.8132468,8.77395531 40.2305397,9.32541104 C40.2672341,9.37367943 40.3248359,9.39589143 40.3803043,9.38862982" id="Fill-214" fill="#1A2E35"></path>
                        <path d="M34.606814,9.51797203 C34.6571622,9.51156472 34.702817,9.48123679 34.7262844,9.43254124 C35.0390407,8.7866845 35.6218853,8.70125371 35.6274322,8.7003994 C35.7144749,8.68886625 35.7733567,8.60856131 35.7597029,8.52142191 C35.7460492,8.43428251 35.66498,8.37319949 35.5787907,8.3843055 C35.5787907,8.38473265 35.5779373,8.38473265 35.5779373,8.38473265 C35.5472164,8.38857704 34.8235674,8.49451121 34.4399822,9.28773606 C34.4020077,9.36633238 34.4352887,9.46201486 34.5146512,9.50216733 C34.5445187,9.51711772 34.5765197,9.52224357 34.606814,9.51797203" id="Fill-216" fill="#1A2E35"></path>
                        <path d="M50.1216611,24.2205676 C50.6396504,25.3187804 51.0769972,26.3465127 51.5015437,27.4272122 C51.9290769,28.4955241 52.3109553,29.5826309 52.687287,30.6740092 C53.4117893,32.8708619 54.0458356,35.1087213 54.4934227,37.4537964 C54.5919858,38.0479675 54.7046293,38.6297511 54.7741781,39.2410084 L54.8326332,39.6946459 L54.8616474,39.9210375 L54.8761546,40.0359419 L54.8898083,40.1948431 C54.9247961,40.6164441 54.9311963,41.0585484 54.8838348,41.5198746 C54.7920986,42.4374013 54.459715,43.4224182 53.9148449,44.2246133 C53.3755216,45.03407 52.6685131,45.6256782 51.9777184,46.0395904 C51.2830836,46.4577741 50.5927156,46.7264539 49.9202682,46.9084215 C49.2491008,47.0916705 48.5979874,47.2048663 47.9575409,47.2603963 C47.3188012,47.3219065 46.6928619,47.3321582 46.0750295,47.3078104 C45.4461034,47.2821812 44.873499,47.2223796 44.204465,47.1100381 C43.404867,46.9754846 42.8655437,46.2177136 42.9999478,45.4172271 C43.1019243,44.8085328 43.5640186,44.3510509 44.1310761,44.2254676 L44.2851075,44.1917225 C44.7284279,44.0943314 45.2681779,43.9747283 45.746486,43.8465821 C46.2358878,43.715873 46.7129158,43.5685049 47.1639164,43.4057592 C48.0595174,43.0811223 48.8727692,42.6479882 49.3177963,42.2084468 C49.5392431,41.9893168 49.6471931,41.7881273 49.6890077,41.6450307 C49.7269822,41.495954 49.7163152,41.3814768 49.6932745,41.1884032 C49.6843142,41.0940022 49.6612735,40.9773891 49.6284192,40.84668 L49.4756678,40.1525549 C49.3792382,39.6613279 49.235447,39.159422 49.1100032,38.662642 C48.8429016,37.6613932 48.5446524,36.6550185 48.2028818,35.6503525 C47.8811652,34.6426964 47.5116605,33.6367489 47.1425824,32.63251 C46.7705176,31.6269896 46.3779721,30.6261679 45.9815866,29.6253463 C45.5805075,28.6381936 45.165348,27.6078983 44.7698158,26.6754212 L44.7510419,26.6309972 C44.1152889,25.1329684 44.8133372,23.402995 46.3097034,22.7669628 C47.7680951,22.1471624 49.4492136,22.8007079 50.1216611,24.2205676" id="Fill-218" fill="#1A2E35"></path>
                        <path d="M42.8310253,45.4414467 L40.9519273,46.3363342 L44.2036543,47.4917856 C44.2036543,47.4917856 46.3703346,46.8010777 45.3181421,45.5969308 L44.7357241,45.4141089 C43.7966018,45.1185184 43.3353609,45.1522635 42.8310253,45.4414467" id="Fill-220" fill="#FFC4BE"></path>
                        <path d="M41.203199,48.6471943 L42.6321498,48.9188642 C43.0511494,48.9983148 43.4739891,48.8005425 43.6817822,48.4280643 L44.2036117,47.4917429 L40.9518846,46.3362915 L40.5034441,47.2273346 C40.2073283,47.8159527 40.5563524,48.5246011 41.203199,48.6471943" id="Fill-222" fill="#FFC4BE"></path>
                    </g>
                    <g id="Group-224-Copy-2" transform="translate(123.000000, 0.000000)">
                        <path d="M186.814887,133.167942 L10.7324526,133.167942 C4.89459706,133.167942 0.407068627,128.384977 0.758945398,122.538152 L7.48309055,10.9011333 C7.83496732,5.05540983 12.8997936,0.271343742 18.7376491,0.271343742 L194.818984,0.271343742 C200.65684,0.271343742 205.145468,5.05540983 204.793591,10.9011333 L198.069446,122.538152 C197.716469,128.384977 192.652743,133.167942 186.814887,133.167942" id="Fill-151" fill="#7B70BE"></path>
                        <polygon id="Fill-153" fill="#7B70BE" points="34.3019284 109.560823 50.5465394 148.277358 98.7316646 109.560823"></polygon>
                        <path d="M178.276048,88.2467288 L79.5724143,88.2467288 C76.2999604,88.2467288 73.7840415,85.5639514 73.9808725,82.287571 L77.7503524,19.7092554 C77.9482831,16.4317736 80.7863892,13.7489962 84.0588432,13.7489962 L182.763576,13.7489962 C186.03493,13.7489962 188.550849,16.4317736 188.354018,19.7092554 L184.584538,82.287571 C184.387707,85.5639514 181.548502,88.2467288 178.276048,88.2467288" id="Fill-155" fill="#FFFFFF" opacity="0.148088728"></path>
                        <path d="M125.465722,115.237276 L26.7620889,115.237276 C23.4896349,115.237276 20.973716,112.555599 21.1705471,109.278118 L24.940027,46.7009034 C25.1379577,43.4223203 27.9760638,40.7406442 31.2485177,40.7406442 L129.953251,40.7406442 C133.225705,40.7406442 135.740524,43.4223203 135.543693,46.7009034 L131.774213,109.278118 C131.577382,112.555599 128.738176,115.237276 125.465722,115.237276" id="Fill-157" fill="#FFFFFF" opacity="0.148088728"></path>
                        <g id="Group-15" transform="translate(19.601379, 23.135206)" stroke="#FFFFFF" stroke-width="0.5">
                            <path d="M8.18659509,4.10629921 C8.00510536,6.3734624 6.02871297,8.21259843 3.7708577,8.21259843 C1.51454048,8.21259843 -0.16808463,6.3734624 0.0134050991,4.10629921 C0.193356779,1.8377553 2.17128721,0 4.42760443,0 C6.6854597,0 8.36808482,1.8377553 8.18659509,4.10629921" id="Fill-159" fill="#D800D8"></path>
                            <path d="M21.6365085,4.10629921 C21.4550188,6.3734624 19.4786264,8.21259843 17.2207711,8.21259843 C14.9644539,8.21259843 13.2818288,6.3734624 13.4633185,4.10629921 C13.6432702,1.8377553 15.6212006,0 17.8775179,0 C20.1353731,0 21.8179982,1.8377553 21.6365085,4.10629921" id="Fill-161" fill="#2236EA"></path>
                            <path d="M35.0864219,4.10629921 C34.9049322,6.3734624 32.9285398,8.21259843 30.6706845,8.21259843 C28.4143673,8.21259843 26.7317422,6.3734624 26.9132319,4.10629921 C27.0931836,1.8377553 29.071114,0 31.3274313,0 C33.5852865,0 35.2679117,1.8377553 35.0864219,4.10629921" id="Fill-163" fill="#19CCFB"></path>
                            <path d="M48.5363353,4.10629921 C48.3548456,6.3734624 46.3784532,8.21259843 44.120598,8.21259843 C41.8642807,8.21259843 40.1816556,6.3734624 40.3631454,4.10629921 C40.543097,1.8377553 42.5210275,0 44.7773447,0 C47.0352,0 48.7178251,1.8377553 48.5363353,4.10629921" id="Fill-163-Copy" fill="#7AD8BB"></path>
                        </g>
                        <path d="M90.1530189,66.8658961 C89.4063804,68.4594835 88.7191211,69.8063787 87.9603868,71.2413783 C87.2181468,72.6499465 86.4253244,74.0287796 85.6358009,75.4076126 C84.0182674,78.1443539 82.3512512,80.8568665 80.5258904,83.4900852 C79.622007,84.8116504 78.6818362,86.1155948 77.7361674,87.4184378 C76.7377171,88.6981535 75.7887494,89.9921861 74.7265214,91.2432678 C72.7120269,93.7872809 70.4083337,96.2046439 68.0089739,98.5581313 C67.3986877,99.1440252 66.7367195,99.7089944 66.1033413,100.281673 C65.4655647,100.85325 64.8365849,101.425928 64.105341,101.949047 L61.9885823,103.543736 C61.9885823,103.543736 61.6092152,103.821265 61.3431084,103.988663 C61.061607,104.175885 60.7581133,104.33227 60.4557192,104.48425 C59.8476321,104.780501 59.2076562,105.001863 58.5588834,105.156046 C57.258039,105.453398 55.9209073,105.456702 54.6409555,105.179173 C53.3621034,104.902746 52.1305347,104.339979 51.076004,103.519507 C50.5514877,103.10762 50.0698564,102.640667 49.6542019,102.129661 L49.3551067,101.738698 L49.2121567,101.541565 L49.1604748,101.45346 L48.9559465,101.097739 L48.1642237,99.6671448 C47.932205,99.201293 47.7628643,98.7662778 47.5627344,98.314743 C46.7930039,96.5185157 46.3124722,94.8566474 45.8671282,93.1892726 C45.0523135,89.8820557 44.5805787,86.6926783 44.2605908,83.5077061 C43.9570971,80.3095183 43.788856,77.2093465 43.8482352,73.9538909 C43.8867217,71.8570074 45.6131171,70.1907339 47.7056843,70.2292796 C49.4133863,70.2601161 50.8362879,71.417587 51.2805324,72.9814391 L51.31572,73.1091904 C52.9101617,78.734653 54.5716798,84.6002 56.7148292,89.5990204 C57.2646367,90.8049487 57.8133445,92.0196874 58.4148339,92.9436817 C58.5632819,93.1683478 58.7062318,93.429357 58.8502814,93.6242878 C58.9954306,93.7916861 59.133982,93.9601857 59.2670354,94.1308878 L59.3638015,94.2586391 L59.3868935,94.2916783 L59.3341119,94.2057765 C59.2956254,94.1485087 59.2549397,94.0934435 59.2109551,94.0394796 C59.0394152,93.8214213 58.8392852,93.6110722 58.6149638,93.4337622 C58.1685201,93.0703317 57.6517011,92.8170317 57.1183879,92.6881791 C56.5839751,92.5593265 56.0231715,92.5472122 55.4612682,92.6650517 C55.1786672,92.720117 54.899365,92.8148291 54.6288598,92.9370739 C54.4914079,92.9943417 54.3649522,93.074737 54.2351976,93.1441191 C54.1230369,93.2035896 53.9119108,93.3731904 54.0482631,93.2531483 L55.4271802,91.9128609 C55.8912177,91.4921626 56.3398606,90.9899678 56.7918023,90.4998874 C57.2415448,90.0043004 57.7022834,89.5406513 58.1443286,89.0263422 C61.6663952,84.8766274 64.9047611,80.1575383 67.9462959,75.25343 C69.4560672,72.7931161 70.9383481,70.2920539 72.3733455,67.7623578 L74.4967019,63.9540474 L76.5089972,60.2228283 L76.6134606,60.0289987 C78.6037636,56.3374265 83.205652,54.9618974 86.8915611,56.9563596 C90.4433173,58.8770344 91.8387286,63.2492126 90.1530189,66.8658961" id="Fill-168" fill="#1A2E35"></path>
                        <path d="M44.8731863,73.4942064 L39.5103644,70.431479 L45.2745457,64.5317917 C45.2745457,64.5317917 47.6827024,66.2531304 49.9468094,68.748686 C51.3719104,70.3213486 50.9452598,72.8113977 49.0693168,73.6979477 C47.7343843,74.3278938 46.1685326,74.2508025 44.8731863,73.4942064" id="Fill-170" fill="#FFC4BE"></path>
                        <path d="M38.2984788,64.1115339 L41.2069602,62.0289674 C41.9975833,61.4639983 43.0938994,61.6313965 43.6777949,62.4089174 L45.2755354,64.5322322 L39.5102544,70.4308183 L37.6991887,66.2899139 C37.3594076,65.512393 37.6101198,64.603817 38.2984788,64.1115339" id="Fill-172" fill="#FFC4BE"></path>
                        <path d="M78.6212475,61.939101 C79.4756482,59.0129353 81.9728737,56.8180357 84.9737228,56.2629784 C87.3290979,55.8510905 88.4265136,55.4931666 91.4482553,55.2673992 C96.6516331,54.8962597 105.208836,55.2409679 111.118167,55.6297284 C114.550065,55.856597 118.054538,56.3400697 120.847559,56.8004149 L120.947624,56.8169344 C124.027646,57.3246357 126.137807,60.267321 125.609992,63.3223392 C124.236573,71.2770605 120.199886,85.1028353 119.76224,98.157697 C119.187141,115.289587 119.44665,125.156173 119.144256,129.287166 L75.104679,128.439161 C72.0411518,86.5444427 75.855716,71.4147236 78.6212475,61.939101" id="Fill-174" fill="#FFFFFF"></path>
                        <path d="M122.122893,56.1561518 L122.018429,56.1418349 C119.073661,55.6561597 115.382253,55.1440531 111.762321,54.9017662 C111.132242,54.8555114 110.477971,54.8202697 109.800608,54.7850279 C107.875183,62.7639779 96.4105975,76.171257 92.9325155,96.5101457 C91.592085,79.5159184 90.5540485,61.7485753 92.5223592,54.8169657 C91.3303766,54.796041 85.6024826,55.1936118 83.2229159,55.6054997 C80.0637223,56.1902923 77.3971561,58.707874 76.2469589,62.0987901 C73.5441055,70.0755375 68.3825131,87.9375927 71.5593006,131.853205 L120.497662,131.853205 C120.823148,127.488736 119.678449,118.198132 121.442231,103.965976 C123.152132,90.1699366 125.597676,71.4103184 127.04257,63.0227844 C127.595676,59.797064 125.371155,56.6935884 122.122893,56.1561518" id="Fill-176" fill="#1A2E35"></path>
                        <path d="M91.8536834,129.582205 C91.7030361,129.582205 91.5743812,129.466568 91.5611858,129.312386 C90.5231493,116.926016 92.4584716,99.1333426 92.4782646,98.95383 C92.4958585,98.7919382 92.6443065,98.6763013 92.802651,98.6939221 C92.9642944,98.7126443 93.079754,98.8580165 93.0621601,99.0188069 C93.0423671,99.1961169 91.1125429,116.933725 92.1472805,129.262827 C92.1604759,129.424719 92.0406179,129.566787 91.8789745,129.581104 C91.8701776,129.581104 91.8624803,129.582205 91.8536834,129.582205" id="Fill-178" fill="#FFFFFF"></path>
                        <path d="M120.404525,73.5920023 C118.584662,81.8253536 119.555622,93.2348666 121.485446,103.646598 C122.933639,91.9617588 124.89975,76.7956966 126.336947,67.4081784 C124.338947,66.0689923 121.843921,67.0139114 120.404525,73.5920023" id="Fill-180" fill="#000000"></path>
                        <path d="M92.3814985,55.2150873 C98.093998,53.9651068 99.0759541,50.4420342 98.6679969,46.5445181 C98.5811274,45.5962951 98.4117867,44.6106277 98.1951625,43.6370747 L105.328364,37.808972 L110.56693,33.5337086 C109.145128,39.8540942 107.56718,51.3814468 111.876571,55.6897494 C111.876571,55.6897494 108.365501,61.4771038 98.5723304,60.7678638 C90.3010271,60.1687542 92.3814985,55.2150873 92.3814985,55.2150873" id="Fill-182" fill="#FFC4BE"></path>
                        <polygon id="Fill-184" fill="#E1E1E1" points="101.05911 59.3084153 99.4767637 60.8149996 104.529494 62.7169522 103.873024 60.7918722"></polygon>
                        <path d="M104.926015,65.4043551 C104.926015,65.4043551 102.94231,60.3658877 101.05867,59.3086355 C107.650861,57.5344342 110.85184,53.8759012 110.85184,53.8759012 L113.858187,55.0697151 C113.858187,55.0697151 114.804956,60.8548668 104.926015,65.4043551" id="Fill-186" fill="#F5F5F5"></path>
                        <polygon id="Fill-188" fill="#E1E1E1" points="98.2841214 58.9233993 99.4761039 60.8154401 94.1528682 61.2757854 95.2227935 59.5896884"></polygon>
                        <path d="M91.4798143,63.985765 C91.4798143,63.985765 94.2882308,60.8283254 98.2842313,58.9230689 C95.3922441,58.058545 95.2196046,54.0696206 95.2196046,54.0696206 L92.4177858,54.6059558 C92.4177858,54.6059558 87.2671896,59.6212958 91.4798143,63.985765" id="Fill-190" fill="#F5F5F5"></path>
                        <path d="M98.1957123,43.6364139 C98.4112369,44.6110682 98.5805775,45.5956343 98.6685467,46.5449587 C101.338412,46.0548782 104.893467,43.2685782 105.250842,40.5406474 C105.384995,39.5164343 105.402588,38.5219565 105.327815,37.8094126 L98.1957123,43.6364139 Z" id="Fill-192" fill="#000000"></path>
                        <path d="M89.5441622,14.8077902 C86.9941552,17.9531154 87.2393693,29.3009554 92.6362793,29.4364159 C98.0342889,29.5718763 94.1834375,9.08431152 89.5441622,14.8077902" id="Fill-194" fill="#1A2E35"></path>
                        <path d="M112.803657,23.0718679 C112.261546,31.6708523 112.379205,36.7258392 108.046722,41.1740075 C101.530404,47.8655327 90.9719022,44.0197779 88.9464115,35.4593392 C87.12325,27.7535127 88.3163322,14.9860914 96.7019954,11.4938553 C104.963402,8.05338052 113.345767,14.4728836 112.803657,23.0718679" id="Fill-196" fill="#FFC4BE"></path>
                        <path d="M108.583994,15.906892 C103.183785,21.2757507 110.200428,25.2063059 107.457989,28.0972298 C112.550305,30.7590824 110.684259,32.7216067 110.684259,32.7216067 C110.684259,32.7216067 109.828758,34.7854511 110.73814,37.2578794 C116.471532,35.7755237 127.1268,16.6866154 115.502771,13.7494367 C108.499324,16.8705333 108.583994,15.906892 108.583994,15.906892" id="Fill-198" fill="#1A2E35"></path>
                        <path d="M110.789712,19.7614572 C105.674303,20.5577002 99.2437553,18.1095007 95.2576513,16.044555 C91.2715472,13.9796094 90.6799544,17.879328 92.1479403,19.073142 C89.5913356,19.1645502 86.3441728,17.1282385 87.1479913,12.6029789 C87.8814345,8.47308761 93.2871413,4.57226761 100.976748,8.06009848 C106.415444,10.5259189 113.126393,7.2792737 115.737979,10.1250441 C118.349564,12.9697133 114.205116,19.2306285 110.789712,19.7614572" id="Fill-200" fill="#1A2E35"></path>
                        <path d="M114.271862,14.162536 C117.708159,13.7043934 117.853308,11.5436343 116.891145,7.73532383 C120.602345,13.0127743 119.117865,14.6316917 116.883448,15.9070021 C114.455498,15.0810238 114.271862,14.162536 114.271862,14.162536" id="Fill-202" fill="#1A2E35"></path>
                        <path d="M115.108119,29.663615 C114.269113,31.5215154 112.778035,32.8739171 111.36613,33.5093697 C109.242774,34.4653019 108.161852,32.5082841 108.736951,30.2010515 C109.254869,28.1261941 110.983464,25.1273424 113.123315,25.1493684 C115.230177,25.1702932 116.068083,27.5380976 115.108119,29.663615" id="Fill-204" fill="#FFC4BE"></path>
                        <path d="M99.4005628,25.6680828 C99.3994608,26.3685124 99.0288905,26.9378867 98.5725504,26.9423064 C98.1173098,26.9455958 97.7489388,26.381728 97.7511282,25.6823997 C97.7522376,24.9830715 98.1228079,24.4114945 98.5780484,24.4081762 C99.033289,24.4048867 99.40166,24.9687545 99.4005628,25.6680828" id="Fill-206" fill="#1A2E35"></path>
                        <path d="M91.5222619,25.735813 C91.5211598,26.4351413 91.1505896,27.0056169 90.6942494,27.0100366 C90.2390088,27.013326 89.8706378,26.4494582 89.8728273,25.75013 C89.8739367,25.0497004 90.2445069,24.4792247 90.6997475,24.4748131 C91.154988,24.4726169 91.523359,25.0353834 91.5222619,25.735813" id="Fill-208" fill="#1A2E35"></path>
                        <path d="M94.4408573,25.9788709 C94.4408573,25.9788709 92.8486149,30.0305696 91.0991276,31.9930939 C92.3306963,33.1373491 94.4276619,32.5911022 94.4276619,32.5911022 L94.4408573,25.9788709 Z" id="Fill-210" fill="#FF857F"></path>
                        <path d="M97.271486,34.4516457 C99.9875348,34.1036336 101.248793,32.2038836 101.304873,32.1157792 C101.366452,32.0221684 101.337862,31.894417 101.243295,31.8305414 C101.147629,31.7666657 101.021173,31.7919957 100.960694,31.8867079 C100.946399,31.9076327 99.5125012,34.0716957 96.4489741,34.0959244 C96.3346141,34.0959244 96.2466449,34.1895353 96.2510434,34.3029697 C96.2543422,34.416404 96.3489091,34.5078123 96.4621694,34.5067208 C96.7447705,34.5045084 97.0141761,34.4846849 97.271486,34.4516457" id="Fill-212" fill="#1A2E35"></path>
                        <path d="M103.217874,22.8868488 C103.28385,22.8780384 103.348728,22.8538097 103.405908,22.8119601 C103.585145,22.677601 103.618133,22.4187944 103.479582,22.2359779 C102.111661,20.4276362 100.219224,20.5553875 100.140051,20.5619953 C99.9256265,20.5575901 99.7507877,20.7767497 99.7738796,21.0036184 C99.7980712,21.2293857 99.9982011,21.3978853 100.222523,21.3802644 C100.301695,21.3758592 101.756485,21.3020718 102.831909,22.7238557 C102.926476,22.8483031 103.074924,22.905571 103.217874,22.8868488" id="Fill-214" fill="#1A2E35"></path>
                        <path d="M88.3387643,23.2203237 C88.4685189,23.2038042 88.5861777,23.1256116 88.6466565,23.0000629 C89.4526742,21.3348907 90.9547482,21.1146298 90.9690432,21.1124272 C91.1933646,21.082692 91.3451115,20.8756468 91.3099238,20.6509807 C91.2747361,20.4263146 91.0658093,20.2688281 90.8436871,20.297462 C90.8436871,20.2985633 90.8414878,20.2985633 90.8414878,20.2985633 C90.7623156,20.308475 88.8973687,20.5815985 87.9088149,22.6267207 C87.8109492,22.8293607 87.8967191,23.0760529 88.1012475,23.1795755 C88.1782205,23.2181211 88.2606916,23.2313368 88.3387643,23.2203237" id="Fill-216" fill="#1A2E35"></path>
                        <path d="M128.322742,61.1271093 C129.657674,63.9585627 130.784779,66.608301 131.878896,69.394601 C132.98071,72.1489632 133.964866,74.9517827 134.934726,77.7656154 C136.801872,83.4296236 138.4359,89.1993571 139.589396,95.245518 C139.843407,96.7774323 140.133705,98.2774088 140.312943,99.8533754 L140.46359,101.022961 L140.538364,101.606652 L140.575751,101.902903 L140.610938,102.312588 C140.701107,103.399575 140.717601,104.539425 140.595544,105.728834 C140.359126,108.094436 139.502526,110.634044 138.098318,112.702293 C136.708405,114.789265 134.886343,116.314571 133.106066,117.381735 C131.315893,118.459912 129.536716,119.152633 127.803723,119.621788 C126.074029,120.094248 124.396017,120.386094 122.745495,120.529263 C121.099371,120.687851 119.486236,120.714282 117.893994,120.651508 C116.273161,120.58543 114.797478,120.431247 113.073282,120.141604 C111.012604,119.794693 109.622691,117.840979 109.969069,115.777135 C110.231877,114.207776 111.42276,113.028279 112.884148,112.704496 L113.281109,112.617493 C114.423609,112.366395 115.814622,112.05803 117.04729,111.727639 C118.308549,111.39064 119.537918,111.01069 120.700211,110.591093 C123.008303,109.754101 125.104169,108.637379 126.251067,107.504137 C126.821767,106.939168 127.09997,106.420453 127.207732,106.051516 C127.305598,105.667161 127.278107,105.372011 127.218728,104.874222 C127.195636,104.630834 127.136257,104.330178 127.051587,103.993178 L126.657925,102.203559 C126.409412,100.937059 126.038841,99.6430262 125.715555,98.3622093 C125.027196,95.7807519 124.258565,93.1860788 123.377773,90.595811 C122.548664,87.997834 121.596397,85.4042623 120.64523,82.8150958 C119.686366,80.2226254 118.67472,77.6422693 117.653178,75.0619132 C116.61954,72.5167988 115.549615,69.8604527 114.530272,67.4563054 L114.481889,67.3417697 C112.843463,63.4794954 114.642433,59.0192127 118.498782,57.3793706 C122.257266,55.781378 126.589749,57.4663736 128.322742,61.1271093" id="Fill-218" fill="#1A2E35"></path>
                        <path d="M109.533732,115.839579 L104.691028,118.146811 L113.071193,121.12584 C113.071193,121.12584 118.655037,119.345031 115.943387,116.240454 L114.442413,115.769095 C112.02216,115.006993 110.833476,115.093996 109.533732,115.839579" id="Fill-220" fill="#FFC4BE"></path>
                        <path d="M105.338591,124.104758 L109.021201,124.805187 C110.101023,125.01003 111.190741,124.500126 111.726254,123.539789 L113.071083,121.12573 L104.690918,118.146701 L103.535222,120.444022 C102.77209,121.96162 103.671575,123.788684 105.338591,124.104758" id="Fill-222" fill="#FFC4BE"></path>
                    </g>
                </g>
            </g>
        </g>
    </g>
</svg>