<?xml version="1.0" encoding="UTF-8"?>
<svg width="22px" height="22px" viewBox="0 0 22 22" version="1.1" xmlns="http://www.w3.org/2000/svg" xmlns:xlink="http://www.w3.org/1999/xlink">
    <title>86192CBD-BA8F-4FA9-9AF8-7D4D3AEEA7FC@3x</title>
    <g id="Page-1" stroke="none" stroke-width="1" fill="none" fill-rule="evenodd">
        <g id="1_AI-Labs_BGM-Project-1" transform="translate(-1238.000000, -338.000000)">
            <g id="Group-6" transform="translate(140.000000, 338.000000)">
                <g id="Group-3" transform="translate(1070.000000, 0.000000)">
                    <g id="List-view---Inactive" transform="translate(28.000000, 0.000000)">
                        <rect id="Rectangle" fill="#FFFFFE" x="0" y="0" width="22" height="22" rx="2"></rect>
                        <g id="Group-5" opacity="0.2" transform="translate(5.000000, 6.000000)" fill="#48398A">
                            <circle id="Oval" cx="1.25" cy="8.75" r="1.25"></circle>
                            <path d="M11.4,8.125 C11.7313708,8.125 12,8.40482203 12,8.75 C12,9.0705224 11.7683759,9.33469198 11.4699727,9.37079517 L11.4,9.375 L4.2,9.375 C3.86862915,9.375 3.6,9.09517797 3.6,8.75 C3.6,8.4294776 3.83162411,8.16530802 4.13002732,8.12920483 L4.2,8.125 L11.4,8.125 Z" id="Path" fill-rule="nonzero"></path>
                            <circle id="Oval" cx="1.25" cy="5" r="1.25"></circle>
                            <path d="M11.4,4.375 C11.7313708,4.375 12,4.65482203 12,5 C12,5.3205224 11.7683759,5.58469198 11.4699727,5.62079517 L11.4,5.625 L4.2,5.625 C3.86862915,5.625 3.6,5.34517797 3.6,5 C3.6,4.6794776 3.83162411,4.41530802 4.13002732,4.37920483 L4.2,4.375 L11.4,4.375 Z" id="Path" fill-rule="nonzero"></path>
                            <circle id="Oval" cx="1.25" cy="1.25" r="1.25"></circle>
                            <path d="M11.4,0.625 C11.7313708,0.625 12,0.904822031 12,1.25 C12,1.5705224 11.7683759,1.83469198 11.4699727,1.87079517 L11.4,1.875 L4.2,1.875 C3.86862915,1.875 3.6,1.59517797 3.6,1.25 C3.6,0.929477601 3.83162411,0.665308025 4.13002732,0.629204832 L4.2,0.625 L11.4,0.625 Z" id="Path" fill-rule="nonzero"></path>
                        </g>
                    </g>
                </g>
            </g>
        </g>
    </g>
</svg>